<svg xmlns="http://www.w3.org/2000/svg" viewBox="0 0 53 53"><path fill="#ffa56c" d="m34.454 21.577-.012 4.094-7.973 4.633.011-4.093z" class="colorffd06c svgShape"></path><path fill="#eb6612" d="m26.48 26.211-.011 4.093-8.023-4.632.011-4.093z" class="colorfebc1f svgShape"></path><path fill="#ffc29b" d="m34.454 21.577-7.974 4.634-8.023-4.632 7.974-4.634z" class="colorffde9b svgShape"></path><path fill="#df7532" d="m42.476 26.209-.011 4.094-7.974 4.633.012-4.093z" class="colordf3260 svgShape"></path><path fill="#834d2b" d="m34.503 30.843-.012 4.093-8.022-4.632.011-4.093z" class="color832b3c svgShape"></path><path fill="#f49051" d="m42.476 26.209-7.973 4.634-8.023-4.632 7.974-4.634z" class="colorf45170 svgShape"></path><path fill="#df7532" d="m26.48 26.211-.011 4.093-7.973 4.633.012-4.093z" class="colordf3260 svgShape"></path><path fill="#834d2b" d="m18.508 30.844-.012 4.093-8.023-4.631.012-4.094z" class="color832b3c svgShape"></path><path fill="#f49051" d="m26.48 26.211-7.972 4.633-8.023-4.632 7.972-4.633z" class="colorf45170 svgShape"></path><path fill="#ffc29b" d="M50.5 30.842c-2.247 5.866-4.904 7.419-7.973 4.633l-8.024-4.632 7.973-4.634 8.024 4.633z" class="colorffde9b svgShape"></path><path fill="#eb6612" d="m42.527 35.475-.012 4.094-8.024-4.633.012-4.093z" class="colorfebc1f svgShape"></path><path fill="#ffa56c" d="m50.5 30.842-.012 4.093-7.973 4.634.012-4.094z" class="colorffd06c svgShape"></path><path fill="#eb6612" d="m26.531 35.476-.012 4.093-8.023-4.632.012-4.093z" class="colorfebc1f svgShape"></path><path fill="#ffa56c" d="m34.503 30.843-.012 4.093-7.972 4.633.012-4.093z" class="colorffd06c svgShape"></path><path fill="#ffc29b" d="m34.503 30.843-7.972 4.633-8.023-4.632 7.972-4.633z" class="colorffde9b svgShape"></path><path fill="#ffa56c" d="m18.508 30.844-.012 4.093-7.973 4.634.011-4.093z" class="colorffd06c svgShape"></path><path fill="#ffc29b" d="m18.508 30.844-7.974 4.634c-2.89 1.298-5.525-.767-8.022-4.632l7.973-4.634 8.023 4.632z" class="colorffde9b svgShape"></path><path fill="#834d2b" d="m34.554 40.108-.011 4.094-8.024-4.633.012-4.093z" class="color832b3c svgShape"></path><path fill="#f49051" d="M42.527 35.475c-2.467 4.587-5.144 5.828-7.973 4.633l-8.023-4.632 7.972-4.633 8.024 4.632zm-15.996.001-7.974 4.634c-3.072 1.51-5.672-.606-8.023-4.632l7.974-4.634 8.023 4.632z" class="colorf45170 svgShape"></path><path fill="#df7532" d="m26.531 35.476-.012 4.093-7.973 4.634.011-4.093z" class="colordf3260 svgShape"></path><path fill="#df7532" d="m18.557 40.11-.011 4.093-8.023-4.632.011-4.093z" class="colordf3260 svgShape"></path><path fill="#ffc29b" d="M34.554 40.108c-2.15 4.245-4.803 5.817-7.973 4.634-3.27 1.748-5.96.294-8.024-4.632l7.974-4.634 8.023 4.632z" class="colorffde9b svgShape"></path><path fill="#df7532" d="m42.527 35.475-.012 4.094-7.972 4.633.011-4.094z" class="colordf3260 svgShape"></path><path fill="#ffa56c" d="m34.554 40.108-.011 4.094-7.974 4.634c-3.16-2.72-2.735-3.905.012-4.094l7.973-4.634z" class="colorffd06c svgShape"></path><path fill="#eb6612" d="m26.581 44.742-.012 4.094-8.023-4.633.011-4.093zM10.534 35.478l-.011 4.093L2.5 34.939l.012-4.093z" class="colorfebc1f svgShape"></path><path fill="#ffa56c" d="m34.454 15.187-.012 4.093-7.973 4.634.011-4.094z" class="colorffd06c svgShape"></path><path fill="#eb6612" d="m26.48 19.82-.011 4.094-8.023-4.632.011-4.093z" class="colorfebc1f svgShape"></path><path fill="#ffc29b" d="M34.454 15.187 26.48 19.82l-8.023-4.631 7.974-4.634z" class="colorffde9b svgShape"></path><path fill="#df7532" d="m42.476 19.819-.011 4.093-7.974 4.634.012-4.094z" class="colordf3260 svgShape"></path><path fill="#834d2b" d="m34.503 24.452-.012 4.094-8.022-4.632.011-4.094z" class="color832b3c svgShape"></path><path fill="#f49051" d="m42.476 19.819-7.973 4.633-8.023-4.632 7.974-4.633z" class="colorf45170 svgShape"></path><path fill="#df7532" d="m26.48 19.82-.011 4.094-7.973 4.633.012-4.093z" class="colordf3260 svgShape"></path><path fill="#834d2b" d="m18.508 24.454-.012 4.093-8.023-4.632.012-4.093z" class="color832b3c svgShape"></path><path fill="#f49051" d="m26.48 19.82-7.972 4.634-8.023-4.632 7.972-4.633z" class="colorf45170 svgShape"></path><path fill="#ffc29b" d="M50.5 24.451c-2.247 5.866-4.904 7.42-7.973 4.634l-8.024-4.633 7.973-4.633L50.5 24.45z" class="colorffde9b svgShape"></path><path fill="#eb6612" d="m42.527 29.085-.012 4.093-8.024-4.632.012-4.094z" class="colorfebc1f svgShape"></path><path fill="#ffa56c" d="m50.5 24.451-.012 4.094-7.973 4.633.012-4.093z" class="colorffd06c svgShape"></path><path fill="#eb6612" d="m26.531 29.086-.012 4.093-8.023-4.632.012-4.093z" class="colorfebc1f svgShape"></path><path fill="#ffa56c" d="m34.503 24.452-.012 4.094-7.972 4.633.012-4.093z" class="colorffd06c svgShape"></path><path fill="#ffc29b" d="m34.503 24.452-7.972 4.634-8.023-4.632 7.972-4.634z" class="colorffde9b svgShape"></path><path fill="#ffa56c" d="m18.508 24.454-.012 4.093-7.973 4.634.011-4.094z" class="colorffd06c svgShape"></path><path fill="#ffc29b" d="m18.508 24.454-7.974 4.633c-2.89 1.299-5.525-.767-8.022-4.632l7.973-4.633 8.023 4.632z" class="colorffde9b svgShape"></path><path fill="#834d2b" d="m34.554 33.718-.011 4.093-8.024-4.632.012-4.093z" class="color832b3c svgShape"></path><path fill="#f49051" d="M42.527 29.085c-2.467 4.586-5.144 5.828-7.973 4.633l-8.023-4.632 7.972-4.634 8.024 4.633zm-15.996 0-7.974 4.634c-3.072 1.511-5.672-.605-8.023-4.632l7.974-4.633 8.023 4.632z" class="colorf45170 svgShape"></path><path fill="#df7532" d="m26.531 29.086-.012 4.093-7.973 4.634.011-4.094z" class="colordf3260 svgShape"></path><path fill="#df7532" d="m18.557 33.719-.011 4.094-8.023-4.632.011-4.094z" class="colordf3260 svgShape"></path><path fill="#ffc29b" d="M34.554 33.718c-2.15 4.244-4.803 5.817-7.973 4.634-3.27 1.748-5.96.294-8.024-4.633l7.974-4.633 8.023 4.632z" class="colorffde9b svgShape"></path><path fill="#df7532" d="m42.527 29.085-.012 4.093-7.972 4.633.011-4.093z" class="colordf3260 svgShape"></path><path fill="#ffa56c" d="m34.554 33.718-.011 4.093-7.974 4.634c-3.16-2.72-2.735-3.904.012-4.093l7.973-4.634z" class="colorffd06c svgShape"></path><path fill="#eb6612" d="m26.581 38.352-.012 4.093-8.023-4.632.011-4.094zM10.534 29.087l-.011 4.094L2.5 28.549l.012-4.094z" class="colorfebc1f svgShape"></path><path fill="#ffa56c" d="m34.454 8.796-.012 4.094-7.973 4.634.011-4.094z" class="colorffd06c svgShape"></path><path fill="#eb6612" d="m26.48 13.43-.011 4.094-8.023-4.632.011-4.094z" class="colorfebc1f svgShape"></path><path fill="#ffc29b" d="M34.454 8.796 26.48 13.43l-8.023-4.632 7.974-4.634z" class="colorffde9b svgShape"></path><path fill="#df7532" d="m42.476 13.428-.011 4.094-7.974 4.633.012-4.093z" class="colordf3260 svgShape"></path><path fill="#834d2b" d="m34.503 18.062-.012 4.093-8.022-4.631.011-4.094z" class="color832b3c svgShape"></path><path fill="#f49051" d="m42.476 13.428-7.973 4.634-8.023-4.632 7.974-4.634z" class="colorf45170 svgShape"></path><path fill="#df7532" d="m26.48 13.43-.011 4.094-7.973 4.633.012-4.094z" class="colordf3260 svgShape"></path><path fill="#834d2b" d="m18.508 18.063-.012 4.094-8.023-4.632.012-4.094z" class="color832b3c svgShape"></path><path fill="#f49051" d="m26.48 13.43-7.972 4.633-8.023-4.632 7.972-4.633z" class="colorf45170 svgShape"></path><path fill="#ffc29b" d="M50.5 18.06c-2.247 5.867-4.904 7.42-7.973 4.634l-8.024-4.632 7.973-4.634 8.024 4.633z" class="colorffde9b svgShape"></path><path fill="#eb6612" d="m42.527 22.694-.012 4.094-8.024-4.633.012-4.093z" class="colorfebc1f svgShape"></path><path fill="#ffa56c" d="m50.5 18.061-.012 4.093-7.973 4.634.012-4.094z" class="colorffd06c svgShape"></path><path fill="#eb6612" d="m26.531 22.695-.012 4.094-8.023-4.632.012-4.094z" class="colorfebc1f svgShape"></path><path fill="#ffa56c" d="m34.503 18.062-.012 4.093-7.972 4.634.012-4.094z" class="colorffd06c svgShape"></path><path fill="#ffc29b" d="m34.503 18.062-7.972 4.633-8.023-4.632 7.972-4.633z" class="colorffde9b svgShape"></path><path fill="#ffa56c" d="m18.508 18.063-.012 4.094-7.973 4.633.011-4.093z" class="colorffd06c svgShape"></path><path fill="#ffc29b" d="m18.508 18.063-7.974 4.634c-2.89 1.298-5.525-.767-8.022-4.632l7.973-4.634 8.023 4.632z" class="colorffde9b svgShape"></path><path fill="#834d2b" d="m34.554 27.328-.011 4.093-8.024-4.632.012-4.094z" class="color832b3c svgShape"></path><path fill="#f49051" d="M42.527 22.694c-2.467 4.587-5.144 5.829-7.973 4.634l-8.023-4.633 7.972-4.633 8.024 4.632zm-15.996.001-7.974 4.634c-3.072 1.511-5.672-.606-8.023-4.632l7.974-4.634 8.023 4.632z" class="colorf45170 svgShape"></path><path fill="#df7532" d="m26.531 22.695-.012 4.094-7.973 4.633.011-4.093z" class="colordf3260 svgShape"></path><path fill="#df7532" d="m18.557 27.329-.011 4.093-8.023-4.632.011-4.093z" class="colordf3260 svgShape"></path><path fill="#ffc29b" d="M34.554 27.328c-2.15 4.244-4.803 5.816-7.973 4.633-3.27 1.748-5.96.294-8.024-4.632l7.974-4.634 8.023 4.633z" class="colorffde9b svgShape"></path><path fill="#df7532" d="m42.527 22.694-.012 4.094-7.972 4.633.011-4.093z" class="colordf3260 svgShape"></path><path fill="#ffa56c" d="m34.554 27.328-.011 4.093-7.974 4.634c-3.16-2.72-2.735-3.905.012-4.094l7.973-4.633z" class="colorffd06c svgShape"></path><path fill="#eb6612" d="m26.581 31.961-.012 4.094-8.023-4.633.011-4.093zM10.534 22.697l-.011 4.093L2.5 22.158l.012-4.093z" class="colorfebc1f svgShape"></path></svg>