<svg width="499" height="499" viewBox="0 0 499 499" fill="none" xmlns="http://www.w3.org/2000/svg">
<circle cx="249.5" cy="249.5" r="247.837" fill="url(#paint0_radial_206_889)" stroke="url(#paint1_linear_206_889)" stroke-width="3.32667"/>
<g filter="url(#filter0_bi_206_889)">
<circle cx="249.5" cy="249.5" r="222.887" fill="black" fill-opacity="0.42"/>
</g>
<path d="M343.921 336.952C343.921 336.952 355.744 350.978 371.801 359.658H334.666C334.666 359.658 316.714 359.658 306.451 346.081L287.047 324.046C287.047 324.046 264.167 352.643 249.209 376.559V304.691C256.942 312.652 269.458 319.997 284.318 308.134C284.318 308.134 266.084 307.134 254.208 288.936C254.208 288.936 249.187 281.758 254.879 277.586C254.879 277.586 252.334 276.786 249.209 273.748V207.691C270.611 254.302 313.253 305.794 313.253 305.794C327.637 322.154 339.681 312.469 339.681 312.469C357.076 298.778 337.174 273.57 337.174 273.57L249.209 170.23V119.23L334.666 216.982L373.81 267.063C373.81 267.063 394.384 292.103 373.81 316.641C373.81 316.641 363.775 331.612 343.921 336.952Z" fill="url(#paint2_linear_206_889)" stroke="url(#paint3_linear_206_889)" stroke-width="3.87892" stroke-miterlimit="10"/>
<path d="M352.31 335.387C352.31 335.387 364.132 349.413 380.189 358.093H343.055C343.055 358.093 325.102 358.093 314.84 344.516L295.436 322.481C295.436 322.481 293.871 324.437 291.293 327.756C281.919 339.814 259.136 369.859 249.426 389.284C249.388 389.354 249.355 389.425 249.323 389.495C249.285 389.565 249.247 389.635 249.214 389.706V291.878C249.214 291.878 249.252 291.943 249.323 292.068C249.35 292.116 249.382 292.181 249.426 292.251C250.909 294.878 260.219 310.444 273.915 312.546C279.525 313.417 285.861 312.028 292.701 306.563C292.701 306.563 274.467 305.563 262.591 287.365C262.591 287.365 257.571 280.188 263.262 276.015C263.262 276.015 254.316 273.221 249.42 258.115C249.382 258.006 249.344 257.898 249.317 257.79C249.279 257.682 249.241 257.574 249.209 257.466V184.366C249.241 184.479 249.279 184.593 249.317 184.706C249.344 184.82 249.382 184.933 249.42 185.047C264.779 235.571 321.642 304.223 321.642 304.223C326.754 310.039 331.569 312.563 335.652 313.4C343.06 314.925 348.07 310.903 348.07 310.903C365.465 297.213 345.562 272.005 345.562 272.005L249.426 159.066L249.323 158.941L249.214 158.823V108.309L249.323 108.19L249.426 108.309L343.055 215.411L382.199 265.492C382.199 265.492 402.772 290.533 382.199 315.071C382.199 315.071 372.164 330.042 352.31 335.382V335.387Z" fill="url(#paint4_linear_206_889)"/>
<path d="M250.628 112.395L341.587 216.443L380.698 266.492L380.709 266.508L380.72 266.524C380.769 266.584 385.724 272.708 388.156 281.625C391.372 293.419 388.876 304.326 380.731 314.038L380.677 314.103L380.628 314.173C380.53 314.319 370.712 328.696 351.671 333.82L349.212 334.485L350.853 336.43C351.292 336.949 360.612 347.91 374.032 356.471H342.844C342.67 356.471 325.59 356.325 315.928 343.538L315.891 343.489L315.853 343.446L296.449 321.41L295.171 319.956L293.963 321.47C293.963 321.47 292.36 323.475 289.804 326.767C281.247 337.765 261.47 363.827 250.633 383.171V297.489C254.771 303.353 262.797 312.514 273.46 314.157L273.59 314.173C274.657 314.335 275.74 314.411 276.807 314.411C282.428 314.411 288.049 312.201 293.513 307.833L296.812 305.196L292.587 304.947C292.544 304.947 288.136 304.661 282.395 302.239C277.131 300.018 269.62 295.483 263.75 286.479L263.733 286.457L263.723 286.441C263.555 286.198 259.688 280.496 264.02 277.318L266.549 275.453L263.555 274.469C263.555 274.469 261.481 273.772 258.903 271.378C256.504 269.151 253.141 264.957 250.763 257.617V257.601L250.752 257.585C250.731 257.52 250.704 257.45 250.687 257.385L250.671 257.325L250.649 257.266C250.649 257.266 250.639 257.234 250.633 257.217V194.213C259.78 218.454 276.563 245.321 289.75 264.508C305.742 287.776 320.044 305.093 320.185 305.266L320.201 305.282L320.218 305.299C324.94 310.671 329.955 313.93 335.121 314.995C336.34 315.243 337.58 315.373 338.798 315.373C344.831 315.373 348.725 312.303 348.877 312.179C356.583 306.115 358.587 296.986 354.671 285.787C351.812 277.61 346.846 271.27 346.635 271.005L346.618 270.983L346.597 270.962L250.633 158.228V112.395M249.117 108.19L249.009 108.309V158.817L249.117 158.936L249.22 159.06L345.357 271.999C345.357 271.999 365.264 297.208 347.864 310.898C347.864 310.898 344.322 313.741 338.793 313.741C337.742 313.741 336.627 313.638 335.446 313.395C331.363 312.557 326.548 310.033 321.436 304.218C321.436 304.218 264.578 235.566 249.214 185.041C249.176 184.928 249.138 184.814 249.111 184.701C249.074 184.587 249.036 184.474 249.003 184.36V257.461C249.036 257.569 249.074 257.677 249.111 257.785C249.138 257.893 249.176 258.001 249.214 258.109C254.11 273.21 263.056 276.01 263.056 276.01C257.37 280.182 262.385 287.36 262.385 287.36C274.261 305.558 292.495 306.558 292.495 306.558C286.885 311.039 281.61 312.779 276.801 312.779C275.745 312.779 274.716 312.698 273.709 312.541C260.013 310.433 250.698 294.867 249.22 292.246C249.176 292.176 249.144 292.111 249.117 292.062C249.046 291.938 249.009 291.873 249.009 291.873V389.7C249.041 389.63 249.079 389.56 249.117 389.489C249.149 389.419 249.182 389.349 249.22 389.279C258.93 369.859 281.713 339.808 291.087 327.75C293.665 324.432 295.23 322.475 295.23 322.475L314.634 344.511C324.891 358.087 342.849 358.087 342.849 358.087H379.984C363.926 349.407 352.104 335.382 352.104 335.382C371.952 330.042 381.993 315.071 381.993 315.071C402.566 290.533 381.993 265.492 381.993 265.492L342.849 215.411L249.209 108.309L249.106 108.19H249.117Z" fill="url(#paint5_linear_206_889)"/>
<path d="M154.496 336.953C154.496 336.953 142.674 350.978 126.617 359.658H163.752C163.752 359.658 181.704 359.658 191.967 346.081L211.371 324.046C211.371 324.046 234.251 352.643 249.209 376.559V304.691C241.476 312.653 228.96 319.998 214.1 308.134C214.1 308.134 232.334 307.134 244.21 288.936C244.21 288.936 249.231 281.759 243.539 277.586C243.539 277.586 246.084 276.786 249.209 273.749V207.691C227.807 254.302 185.165 305.794 185.165 305.794C170.781 322.154 158.737 312.469 158.737 312.469C141.342 298.778 161.244 273.57 161.244 273.57L249.209 170.23V119.23L163.752 216.982L124.608 267.063C124.608 267.063 104.034 292.103 124.608 316.641C124.608 316.641 134.643 331.613 154.496 336.953Z" fill="url(#paint6_linear_206_889)" stroke="url(#paint7_linear_206_889)" stroke-width="3.87892" stroke-miterlimit="10"/>
<path d="M249.209 108.309V158.817L249.106 158.936L248.998 159.061L152.861 272C152.861 272 132.953 297.208 150.354 310.898C150.354 310.898 155.363 314.925 162.771 313.395C166.855 312.558 171.669 310.033 176.781 304.218C176.781 304.218 233.639 235.566 249.003 185.042C249.041 184.928 249.079 184.815 249.111 184.701C249.144 184.588 249.182 184.474 249.214 184.361V257.461C249.182 257.569 249.144 257.677 249.111 257.785C249.079 257.893 249.041 258.001 249.003 258.109C244.107 273.21 235.161 276.01 235.161 276.01C240.847 280.183 235.833 287.36 235.833 287.36C223.956 305.558 205.722 306.558 205.722 306.558C212.562 312.022 218.898 313.411 224.509 312.541C238.205 310.433 247.519 294.868 248.998 292.246C249.041 292.176 249.074 292.111 249.106 292.062C249.171 291.938 249.209 291.873 249.209 291.873V389.701C249.176 389.63 249.139 389.56 249.106 389.49C249.068 389.419 249.036 389.349 248.998 389.279C239.288 369.859 216.504 339.809 207.13 327.75C204.552 324.432 202.987 322.475 202.987 322.475L183.583 344.511C173.326 358.088 155.368 358.088 155.368 358.088H118.239C134.296 349.408 146.119 335.382 146.119 335.382C126.271 330.042 116.23 315.071 116.23 315.071C95.6565 290.533 116.23 265.492 116.23 265.492L155.374 215.411L249.003 108.309L249.111 108.19L249.214 108.309H249.209Z" fill="url(#paint8_linear_206_889)"/>
<path d="M247.584 112.395V158.223L151.621 270.957L151.599 270.978L151.583 271C151.372 271.265 146.406 277.61 143.546 285.782C139.631 296.981 141.634 306.104 149.33 312.163C149.492 312.293 153.386 315.368 159.419 315.368C160.638 315.368 161.878 315.238 163.096 314.99C168.263 313.93 173.278 310.666 178 305.293L178.016 305.277L178.032 305.261C178.173 305.088 192.476 287.771 208.468 264.503C221.655 245.311 238.443 218.438 247.584 194.208V257.218L247.552 257.32C247.525 257.407 247.498 257.499 247.465 257.585V257.601L247.454 257.618C245.071 264.957 241.714 269.151 239.315 271.378C236.737 273.773 234.684 274.464 234.674 274.47L231.614 275.426L234.197 277.323C238.529 280.502 234.663 286.204 234.495 286.441L234.479 286.463L234.462 286.485C228.586 295.489 221.081 300.024 215.817 302.245C210.076 304.666 205.668 304.948 205.63 304.948L201.384 305.18L204.704 307.834C210.168 312.201 215.79 314.411 221.411 314.411C222.478 314.411 223.561 314.33 224.628 314.174H224.633L224.758 314.157C235.426 312.52 243.452 303.359 247.584 297.489V383.171C236.748 363.828 216.97 337.766 208.414 326.767C205.857 323.475 204.271 321.492 204.254 321.47L203.047 319.957L201.769 321.411L182.365 343.446L182.327 343.489L182.289 343.538C172.655 356.288 155.542 356.472 155.374 356.472H124.186C137.605 347.916 146.925 336.949 147.364 336.431L149.005 334.485L146.546 333.82C127.559 328.713 117.687 314.314 117.589 314.174L117.541 314.103L117.487 314.038C109.342 304.326 106.845 293.419 110.062 281.626C112.493 272.708 117.449 266.584 117.497 266.525L117.508 266.508L117.519 266.492L156.63 216.444L247.584 112.395ZM249.106 108.19L248.998 108.309L155.374 215.411L116.23 265.492C116.23 265.492 95.6565 290.533 116.23 315.071C116.23 315.071 126.265 330.042 146.119 335.382C146.119 335.382 134.296 349.408 118.239 358.088H155.374C155.374 358.088 173.326 358.088 183.589 344.511L202.993 322.475C202.993 322.475 204.558 324.432 207.136 327.75C216.51 339.809 239.293 369.854 249.003 389.279C249.041 389.349 249.073 389.419 249.111 389.49C249.144 389.56 249.182 389.63 249.214 389.701V291.873C249.214 291.873 249.176 291.938 249.111 292.062C249.079 292.111 249.046 292.176 249.003 292.246C247.519 294.873 238.21 310.439 224.514 312.541C223.507 312.698 222.472 312.779 221.422 312.779C216.613 312.779 211.338 311.039 205.727 306.558C205.727 306.558 223.962 305.558 235.838 287.36C235.838 287.36 240.858 280.183 235.166 276.01C235.166 276.01 244.113 273.216 249.009 258.109C249.046 258.001 249.084 257.893 249.117 257.785C249.149 257.677 249.187 257.569 249.22 257.461V184.361C249.187 184.474 249.149 184.588 249.117 184.701C249.084 184.815 249.046 184.928 249.009 185.042C233.65 235.566 176.787 304.218 176.787 304.218C171.675 310.033 166.86 312.558 162.777 313.395C161.596 313.638 160.475 313.741 159.43 313.741C153.901 313.741 150.359 310.898 150.359 310.898C132.964 297.208 152.866 272 152.866 272L249.003 159.061L249.111 158.936L249.214 158.817V108.309L249.111 108.19H249.106Z" fill="url(#paint9_linear_206_889)"/>
<defs>
<filter id="filter0_bi_206_889" x="-86.4933" y="-86.4934" width="671.987" height="671.987" filterUnits="userSpaceOnUse" color-interpolation-filters="sRGB">
<feFlood flood-opacity="0" result="BackgroundImageFix"/>
<feGaussianBlur in="BackgroundImageFix" stdDeviation="56.5533"/>
<feComposite in2="SourceAlpha" operator="in" result="effect1_backgroundBlur_206_889"/>
<feBlend mode="normal" in="SourceGraphic" in2="effect1_backgroundBlur_206_889" result="shape"/>
<feColorMatrix in="SourceAlpha" type="matrix" values="0 0 0 0 0 0 0 0 0 0 0 0 0 0 0 0 0 0 127 0" result="hardAlpha"/>
<feOffset/>
<feGaussianBlur stdDeviation="23.2867"/>
<feComposite in2="hardAlpha" operator="arithmetic" k2="-1" k3="1"/>
<feColorMatrix type="matrix" values="0 0 0 0 1 0 0 0 0 1 0 0 0 0 1 0 0 0 0.02 0"/>
<feBlend mode="normal" in2="shape" result="effect2_innerShadow_206_889"/>
</filter>
<radialGradient id="paint0_radial_206_889" cx="0" cy="0" r="1" gradientUnits="userSpaceOnUse" gradientTransform="translate(249.5 249.5) rotate(90) scale(249.5)">
<stop stop-color="#1E1E1E"/>
<stop offset="1" stop-color="#212121"/>
</radialGradient>
<linearGradient id="paint1_linear_206_889" x1="249.5" y1="0" x2="249.5" y2="499" gradientUnits="userSpaceOnUse">
<stop stop-color="white" stop-opacity="0.06"/>
<stop offset="0.322917" stop-color="white" stop-opacity="0"/>
<stop offset="0.598958" stop-color="white" stop-opacity="0.1"/>
<stop offset="1" stop-color="white" stop-opacity="0"/>
</linearGradient>
<linearGradient id="paint2_linear_206_889" x1="261.058" y1="113.722" x2="310.798" y2="312.223" gradientUnits="userSpaceOnUse">
<stop stop-color="white"/>
<stop offset="0.08" stop-color="#EEEEEE"/>
<stop offset="0.25" stop-color="#EAEAEA"/>
<stop offset="0.39" stop-color="#E0E1E1"/>
<stop offset="0.52" stop-color="#D0D0D1"/>
<stop offset="0.64" stop-color="#B8B9BA"/>
<stop offset="0.75" stop-color="#9A9B9E"/>
<stop offset="0.83" stop-color="#808285"/>
<stop offset="1" stop-color="#414042"/>
</linearGradient>
<linearGradient id="paint3_linear_206_889" x1="191.49" y1="215.436" x2="391.85" y2="331.346" gradientUnits="userSpaceOnUse">
<stop stop-color="white"/>
<stop offset="0.85" stop-color="#2B2728"/>
<stop offset="1" stop-color="#231F20"/>
</linearGradient>
<linearGradient id="paint4_linear_206_889" x1="354.574" y1="193.397" x2="249.737" y2="298.442" gradientUnits="userSpaceOnUse">
<stop stop-color="#58595B"/>
<stop offset="0.31" stop-color="#A7A9AC"/>
<stop offset="0.38" stop-color="#ACADB0"/>
<stop offset="0.47" stop-color="#BABCBE"/>
<stop offset="0.56" stop-color="#D2D3D4"/>
<stop offset="0.64" stop-color="#EEEEEE"/>
<stop offset="1" stop-color="white"/>
</linearGradient>
<linearGradient id="paint5_linear_206_889" x1="187.997" y1="213.763" x2="394.395" y2="333.164" gradientUnits="userSpaceOnUse">
<stop offset="0.13" stop-color="white" stop-opacity="0.5"/>
<stop offset="0.56" stop-color="#D1D3D4" stop-opacity="0"/>
</linearGradient>
<linearGradient id="paint6_linear_206_889" x1="237.36" y1="113.723" x2="187.62" y2="312.224" gradientUnits="userSpaceOnUse">
<stop stop-color="white"/>
<stop offset="0.08" stop-color="#EEEEEE"/>
<stop offset="0.25" stop-color="#EAEAEA"/>
<stop offset="0.39" stop-color="#E0E1E1"/>
<stop offset="0.52" stop-color="#D0D0D1"/>
<stop offset="0.64" stop-color="#B8B9BA"/>
<stop offset="0.75" stop-color="#9A9B9E"/>
<stop offset="0.83" stop-color="#808285"/>
<stop offset="1" stop-color="#414042"/>
</linearGradient>
<linearGradient id="paint7_linear_206_889" x1="106.368" y1="331.002" x2="306.729" y2="215.092" gradientUnits="userSpaceOnUse">
<stop stop-color="#231F20"/>
<stop offset="0.15" stop-color="#2B2728"/>
<stop offset="1" stop-color="white"/>
</linearGradient>
<linearGradient id="paint8_linear_206_889" x1="333.085" y1="165.184" x2="191.425" y2="307.125" gradientUnits="userSpaceOnUse">
<stop stop-color="white"/>
<stop offset="0.36" stop-color="#EEEEEE"/>
<stop offset="0.44" stop-color="#D2D3D4"/>
<stop offset="0.53" stop-color="#BABCBE"/>
<stop offset="0.62" stop-color="#ACADB0"/>
<stop offset="0.69" stop-color="#A7A9AC"/>
<stop offset="1" stop-color="#BCBEC0"/>
</linearGradient>
<linearGradient id="paint9_linear_206_889" x1="146.823" y1="211.904" x2="300.601" y2="300.866" gradientUnits="userSpaceOnUse">
<stop offset="0.13" stop-color="white" stop-opacity="0.5"/>
<stop offset="0.56" stop-color="#D1D3D4" stop-opacity="0"/>
</linearGradient>
</defs>
</svg>
