<svg xmlns="http://www.w3.org/2000/svg" viewBox="0 0 512 512"><g data-name="11. DAO (Decentralized Autonomous Organization)"><path fill="#fcdca7" d="M485 237a19 19 0 1 1-4.54.55A19 19 0 0 1 485 237zm-16.21-116.29a19 19 0 1 1-26.87 0 19 19 0 0 1 26.87 0zm0 243.71a19 19 0 1 1-9.2-5.08 19 19 0 0 1 9.2 5.08zM275 103a18.38 18.38 0 0 1-.22 2.89 19 19 0 0 1-37.56 0A20.07 20.07 0 0 1 237 103a19 19 0 0 1 38 0zm-.22 303.11A18.38 18.38 0 0 1 275 409a19 19 0 0 1-38 0 20.07 20.07 0 0 1 .22-2.92 19 19 0 0 1 37.56 0z"/><path fill="#aeaee7" d="M383 182H129a24 24 0 0 0-24 24v100a24 24 0 0 0 24 24h254a24 24 0 0 0 24-24V206a24 24 0 0 0-24-24Z"/><path fill="#9d9de0" d="M407 206v100a24 24 0 0 1-24 24H129a24 24 0 0 1-24-24v-3.5h254.5a16 16 0 0 0 16-16V182h7.5a24 24 0 0 1 24 24Z"/><path fill="#fcdca7" d="M75.39 131.13a19 19 0 1 1-5.31-10.42 18.92 18.92 0 0 1 5.31 10.42zm-5.31 233.29a19 19 0 1 1-17.67-5.08 18.92 18.92 0 0 1 17.67 5.08zM31.54 237.55A19 19 0 1 1 27 237a19 19 0 0 1 4.54.55z"/><path fill="#2c2c3d" d="M512 256a27 27 0 0 0-25.39-26.95L469 157.44a27 27 0 1 0-37.84-35.25L282.71 99.06a27 27 0 0 0-53.42 0L80.84 122.19A27 27 0 1 0 43 157.44l-17.61 71.61a27 27 0 0 0 0 53.9L43 354.56a27 27 0 1 0 37.84 35.25l148.45 23.13a27 27 0 0 0 53.42 0l148.45-23.13A27 27 0 1 0 469 354.56L486.61 283A27 27 0 0 0 512 256Zm-69.22 98-16.87-16.88a8 8 0 0 0-11.32 11.32l16.88 16.87a26.9 26.9 0 0 0-2.82 8.73l-148.41 23.09A27.13 27.13 0 0 0 264 383.21V338h119a32 32 0 0 0 32-32v-42h44.21a27.08 27.08 0 0 0 11.87 15.12L453.41 351a26.79 26.79 0 0 0-10.63 3Zm-211 43.16L83.35 374a26.9 26.9 0 0 0-2.82-8.73l31.91-31.91A31.75 31.75 0 0 0 129 338h119v45.21a27.13 27.13 0 0 0-16.24 13.92ZM58.59 351l-17.67-71.88A27.08 27.08 0 0 0 52.79 264H97v42a31.8 31.8 0 0 0 4.26 15.92L69.22 354a26.84 26.84 0 0 0-10.63-3Zm10.63-193 32 32.05A31.8 31.8 0 0 0 97 206v42H52.79a27.08 27.08 0 0 0-11.87-15.12l17.67-71.83A26.79 26.79 0 0 0 69.22 158ZM248 128.79V174h-41.17a8 8 0 0 0 0 16H383a16 16 0 0 1 16 16v100a16 16 0 0 1-16 16H129a16 16 0 0 1-16-16V206a16 16 0 0 1 16-16h23.25a8 8 0 0 0 0-16c-24.13 0-30.24-1.18-39.81 4.63l-31.91-31.91a26.9 26.9 0 0 0 2.82-8.72l148.41-23.12A27.13 27.13 0 0 0 248 128.79Zm32.24-13.92L428.65 138a26.9 26.9 0 0 0 2.82 8.73l-31.91 31.91A31.75 31.75 0 0 0 383 174H264v-45.21a27.13 27.13 0 0 0 16.24-13.92Zm173.17 46.18 17.67 71.83A27.08 27.08 0 0 0 459.21 248H415v-42a31.8 31.8 0 0 0-4.26-15.92l32-32.05a26.79 26.79 0 0 0 10.67 3.02ZM496 256a11 11 0 1 1-11-11 11 11 0 0 1 11 11Zm-40.64-132.85a11 11 0 1 1-7.78 3.21 11 11 0 0 1 7.78-3.21ZM256 92a11 11 0 1 1-11 11 11 11 0 0 1 11-11ZM48.86 126.36a11 11 0 1 1 0 15.56 11 11 0 0 1 0-15.56ZM16 256a11 11 0 1 1 11 11 11 11 0 0 1-11-11Zm32.86 129.64a11 11 0 1 1 15.56 0 11 11 0 0 1-15.56 0ZM256 420a11 11 0 1 1 11-11 11 11 0 0 1-11 11Zm207.14-34.36a11 11 0 1 1 0-15.56 11 11 0 0 1 0 15.56Z"/><path fill="#2c2c3d" d="M181.46 190a8 8 0 1 0-8.21-8 8 8 0 0 0 8.21 8zM143 226v60a8 8 0 0 0 8 8h20a38 38 0 0 0 0-76h-20a8 8 0 0 0-8 8zm16 8h12a22 22 0 0 1 0 44h-12zm177 60a33 33 0 0 0 33-33v-10a33 33 0 0 0-66 0v10a33 33 0 0 0 33 33zm-17-43a17 17 0 0 1 34 0v10a17 17 0 0 1-34 0zm-87 43a8 8 0 0 0 8-8v-9h32v9a8 8 0 0 0 16 0v-34a32 32 0 0 0-64 0v34a8 8 0 0 0 8 8zm24-58a16 16 0 0 1 16 16v9h-32v-9a16 16 0 0 1 16-16z"/></g></svg>