<svg xmlns="http://www.w3.org/2000/svg" viewBox="0 0 133 133"><path fill="#545c6d" d="M130.5 66.5a63.883 63.883 0 0 1-4.687 24.079c-3.224 7.94-7.949 15.062-14.051 21.173-6.111 6.111-13.243 10.837-21.183 14.051A63.647 63.647 0 0 1 66.5 130.5a63.7 63.7 0 0 1-24.079-4.697c-7.949-3.224-15.071-7.949-21.173-14.051-6.102-6.102-10.837-13.223-14.061-21.173A63.883 63.883 0 0 1 2.5 66.5a63.807 63.807 0 0 1 4.687-24.079 63.457 63.457 0 0 1 14.07-21.173c6.092-6.102 13.214-10.837 21.163-14.061A63.892 63.892 0 0 1 66.5 2.5a63.807 63.807 0 0 1 24.079 4.687c7.949 3.224 15.081 7.959 21.183 14.061s10.827 13.223 14.051 21.173A63.807 63.807 0 0 1 130.5 66.5z"/><path fill="#0bdf74" d="M28.449 75.71a13.012 13.012 0 0 1 0-18.437c5.141-5.141 13.367-5.141 18.473-.035a13.096 13.096 0 0 1 0 18.508c-5.106 5.105-13.332 5.105-18.473-.036z"/><path fill="#fdba21" d="M57.275 104.536a13.01 13.01 0 0 1 0-18.437 13.022 13.022 0 0 1 18.473-.035 13.098 13.098 0 0 1 0 18.508c-5.106 5.069-13.368 5.069-18.473-.036z"/><path fill="#fb434c" d="M86.065 75.71c-5.07-5.106-5.07-13.332 0-18.437 5.106-5.105 13.367-5.141 18.473-.035a13.064 13.064 0 0 1 0 18.508c-5.106 5.105-13.332 5.105-18.473-.036z"/><path fill="#47bcff" d="M57.275 46.884c-5.106-5.07-5.106-13.331 0-18.437 5.07-5.07 13.367-5.106 18.473 0 5.105 5.106 5.07 13.402 0 18.473a13.023 13.023 0 0 1-18.473-.036z"/></svg>