<svg xmlns="http://www.w3.org/2000/svg" data-name="Layer 1" viewBox="0 0 128 128"><path fill="#2d4356" d="M2.3418 70.85052A2.001 2.001 0 0 0 .64258 73.11328c.19238 1.351.43262 2.72009.71387 4.06866a2.00046 2.00046 0 1 0 3.916-.81989c-.26465-1.26355-.48926-2.5462-.66895-3.81171A2 2 0 0 0 2.3418 70.85052zM7.67188 84.72852A2.00066 2.00066 0 1 0 3.916 86.1084c.4707 1.28308.99219 2.56958 1.54785 3.82385a2 2 0 1 0 3.65625-1.62219C8.59961 87.13495 8.1123 85.93005 7.67188 84.72852zM1.99609 65.85785H2A2.00047 2.00047 0 0 0 4 63.8609c.00293-1.285.04688-2.58716.13184-3.8703a2.00042 2.00042 0 1 0-3.99219-.26288C.0498 61.09491.00293 62.48254 0 63.85211A2.00089 2.00089 0 0 0 1.99609 65.85785zM14.876 22.94849c-.88086 1.05542-1.73633 2.1499-2.54395 3.25317a2.00071 2.00071 0 1 0 3.22852 2.36389c.75586-1.03436 1.55859-2.061 2.38574-3.0509A2.00075 2.00075 0 1 0 14.876 22.94849zM10.4541 95.35974a2.00213 2.00213 0 0 0-.626 2.76019c.72852 1.15656 1.50586 2.3067 2.3125 3.4198a2.00034 2.00034 0 1 0 3.23828-2.34924c-.75586-1.04321-1.48437-2.12109-2.166-3.20386A2.0012 2.0012 0 0 0 10.4541 95.35974zM10.10938 33.24109a1.99757 1.99757 0 0 0-2.70312.83063c-.64062 1.20789-1.251 2.45819-1.81543 3.71637a2 2 0 1 0 3.64844 1.63983c.5293-1.17908 1.10156-2.35028 1.7002-3.4809A2.00155 2.00155 0 0 0 10.10938 33.24109zM2.41406 46.52008c-.37207 1.31293-.707 2.662-.99609 4.01007a2.00047 2.00047 0 1 0 3.91211.83844c.26953-1.26355.584-2.5271.93164-3.756a1.99988 1.99988 0 1 0-3.84766-1.09253zM23.99414 19.25507c.9541-.85455 1.9502-1.69159 2.96387-2.48853a2.00095 2.00095 0 0 0-2.47266-3.14661c-1.08008.84967-2.14258 1.74237-3.15918 2.65363a2.00047 2.00047 0 1 0 2.668 2.98151zM97.49219 14.17938a2.00092 2.00092 0 0 0 2.23633-3.31866c-1.13574-.7666-2.3125-1.50641-3.49707-2.19873a2.00109 2.00109 0 0 0-2.01758 3.45642C95.32422 12.76727 96.42773 13.46112 97.49219 14.17938zM125.39453 57.31891a2.039 2.039 0 0 0 .28125-.02 2.00077 2.00077 0 0 0 1.70215-2.26038c-.19141-1.36517-.42871-2.73376-.7041-4.06818a2.00042 2.00042 0 1 0-3.918.81012c.25879 1.25085.48145 2.53442.66113 3.81512A2.00117 2.00117 0 0 0 125.39453 57.31891zM33.17383 12.16382a1.99225 1.99225 0 0 0 .99414-.26624c1.11523-.64111 2.26367-1.25183 3.41211-1.81622a2.00135 2.00135 0 0 0-1.76367-3.5932c-1.22559.60242-2.4502 1.25427-3.64062 1.93829a2.002 2.002 0 0 0 .998 3.73737zM86.39941 8.28528a2.00141 2.00141 0 0 0 1.49414-3.7135c-1.27344-.513-2.58008-.99091-3.88281-1.41937a2.00128 2.00128 0 0 0-1.25 3.80237C83.98145 7.35638 85.20605 7.804 86.39941 8.28528zM45.03418 6.91956a1.98972 1.98972 0 0 0 .61133-.09625c1.22168-.39233 2.47363-.74951 3.71973-1.06219a2.00124 2.00124 0 0 0-.97266-3.88251c-1.3291.33319-2.665.71478-3.96973 1.13354a2.00183 2.00183 0 0 0 .61133 3.90741zM74.32422 4.84686a2.00125 2.00125 0 0 0 .68164-3.944C73.6582.66925 72.2832.47626 70.91992.32965a2.00109 2.00109 0 0 0-.42773 3.97925C71.77051 4.44672 73.05957 4.628 74.32422 4.84686zM57.93359 4.265c1.27148-.128 2.57031-.21643 3.86133-.26385A2.00122 2.00122 0 0 0 61.64844.00134c-1.375.0498-2.75977.14459-4.11523.28094a2.00129 2.00129 0 0 0 .19824 3.99243C57.79785 4.27472 57.86523 4.2713 57.93359 4.265zM120.37793 43.40863a2.0004 2.0004 0 1 0 3.75781-1.373c-.4707-1.288-.98828-2.57544-1.53906-3.82629a2.00019 2.00019 0 1 0-3.66016 1.61438C119.45215 40.99536 119.93748 42.20172 120.37793 43.40863zM115.94727 26.58716a2.00014 2.00014 0 1 0-3.24414 2.34045c.75 1.04126 1.47656 2.12109 2.15918 3.21069a2.00057 2.00057 0 1 0 3.38867-2.12744C117.52246 28.84894 116.74707 27.69733 115.94727 26.58716zM110.40332 105.19989a1.99891 1.99891 0 0 0 2.81641-.25995c.87988-1.05878 1.73242-2.15479 2.53613-3.25757a2.00055 2.00055 0 1 0-3.23242-2.358c-.75391 1.03491-1.55469 2.06342-2.37988 3.05725A2.00205 2.00205 0 0 0 110.40332 105.19989zM107.0293 16.5946a2.00038 2.00038 0 1 0-2.68945 2.96191c.95215.86682 1.8877 1.77368 2.77832 2.69519a2.00072 2.00072 0 1 0 2.875-2.78314C109.043 18.48553 108.0459 17.51855 107.0293 16.5946zM125.07031 74.95483a1.99858 1.99858 0 0 0-2.37109 1.54352c-.2666 1.26355-.57812 2.52759-.92383 3.75745a2.00056 2.00056 0 1 0 3.85156 1.08374c.36914-1.3139.7002-2.66345.98633-4.01251A2.00121 2.00121 0 0 0 125.07031 74.95483zM126 62.00128a2.00078 2.00078 0 0 0-2 2.00134c0 1.28455-.041 2.58716-.123 3.87128a2.00082 2.00082 0 0 0 1.86914 2.12445c.043.00244.08594.00391.12891.00391a2.0006 2.0006 0 0 0 1.99414-1.87433c.08691-1.36859.13086-2.75623.13086-4.12531A2.00078 2.00078 0 0 0 126 62.00128zM18.15234 105.81458a2.00265 2.00265 0 0 0-.041 2.83c.9541.98163 1.95313 1.94617 2.9707 2.86719a2.001 2.001 0 0 0 2.68359-2.96881c-.95508-.86334-1.8916-1.76776-2.78516-2.68835A1.99942 1.99942 0 0 0 18.15234 105.81458zM102.3916 114.72394a1.99163 1.99163 0 0 0 1.23828-.43048c1.07617-.85071 2.1377-1.74579 3.15527-2.6615a2.00089 2.00089 0 0 0-2.67578-2.97565c-.95312.858-1.94922 1.69794-2.958 2.49536a2.00168 2.00168 0 0 0 1.24023 3.57227zM117.96387 94.63806a1.99806 1.99806 0 0 0 2.70117-.83893c.64258-1.22107 1.25-2.4729 1.80566-3.71979a2 2 0 1 0-3.65234-1.631c-.52148 1.16876-1.09082 2.34143-1.69238 3.48621A2.002 2.002 0 0 0 117.96387 94.63806zM59.42773 125.91071a2.00156 2.00156 0 0 0-1.78027-2.19977c-1.27539-.13385-2.56445-.31171-3.832-.52869a2.00158 2.00158 0 0 0-.67383 3.946c1.35254.23065 2.72754.42072 4.08789.56384a2.06209 2.06209 0 0 0 .21094.01074A2.0017 2.0017 0 0 0 59.42773 125.91071zM30.625 113.90405a2.00128 2.00128 0 0 0-2.23047 3.32349c1.1377.76373 2.31641 1.501 3.50391 2.191a2.00077 2.00077 0 0 0 2.00781-3.46136C32.79395 115.31073 31.68945 114.61987 30.625 113.90405zM66.5 127.99854c1.37012-.0528 2.75488-.15051 4.11523-.29022a2.00155 2.00155 0 0 0-.4082-3.98224c-1.27637.13147-2.5752.22284-3.86133.27264A2.00142 2.00142 0 0 0 66.42188 128C66.44727 128 66.47363 127.99951 66.5 127.99854zM41.73242 119.77228a2.00129 2.00129 0 0 0-1.48633 3.71637c1.27539.51007 2.583.985 3.88672 1.41058a2.00115 2.00115 0 0 0 1.24023-3.8053C44.15137 120.69525 42.92676 120.25061 41.73242 119.77228zM79.25977 126.152a1.99574 1.99574 0 0 0 .49316-.062c1.333-.33813 2.667-.72266 3.9668-1.14337a2.001 2.001 0 0 0-1.23047-3.80823c-1.21875.39429-2.46973.75488-3.71875 1.072a2.00163 2.00163 0 0 0 .48926 3.94159zM91.43555 121.65833a1.98739 1.98739 0 0 0 .88477-.20819c1.23047-.60931 2.4541-1.264 3.63477-1.94611a2.00114 2.00114 0 0 0-2-3.46674c-1.10742.63959-2.25391 1.25378-3.4082 1.82544a2.0017 2.0017 0 0 0 .88867 3.79559zM107.54 26.7a1.99983 1.99983 0 0 0-1.54-.72H98.28a2.00085 2.00085 0 0 0-1.98 1.7c-.59 3.91-2.66 5.39-4.27 5.96a.2094.2094 0 0 0-.04-.06006A3.96045 3.96045 0 0 0 89 32.23H39a3.96045 3.96045 0 0 0-2.99 1.35c-.02.02-.03.04-.05.06006-1.6-.56006-3.67-2.05-4.26-5.96a2.00085 2.00085 0 0 0-1.98-1.7H22a1.99923 1.99923 0 0 0-1.97 2.36C20.29 29.75 26.6 62.6 48.3 73.39a34.02348 34.02348 0 0 0 2.36 2.83c3.26 3.52 4.15 5.53 4.37006 6.55a1.00681 1.00681 0 0 0-.03.25 2.42031 2.42031 0 0 0 .06.47 6.19285 6.19285 0 0 1-1.3 2.44 14.50125 14.50125 0 0 0-2.44 4.74c-.03.02-.05.04-.08.06a13.45051 13.45051 0 0 0-5.91 7.55H44a3.99891 3.99891 0 0 0-4 4v8a4.00742 4.00742 0 0 0 4 4.01H84a4.00742 4.00742 0 0 0 4-4.01v-8a3.99891 3.99891 0 0 0-4-4H82.67a13.45051 13.45051 0 0 0-5.91-7.55c-.03-.02-.05-.04-.08-.06a14.50125 14.50125 0 0 0-2.44-4.74 6.19285 6.19285 0 0 1-1.3-2.44 2.42031 2.42031 0 0 0 .06-.47 1.00681 1.00681 0 0 0-.03-.25c.22-1.02 1.11-3.03 4.37006-6.55a34.02348 34.02348 0 0 0 2.36-2.83c21.7-10.79 28.01-43.64 28.27-45.05A2.0198 2.0198 0 0 0 107.54 26.7zM24.49 29.98H28.1a10.2454 10.2454 0 0 0 7.04 7.6c.5 3.44 2.63 16.34 8.24 27.71C31.43 54.88 26.07 36.49 24.49 29.98zM84 102.28v8H44v-8zm-9.15-8.01a9.54765 9.54765 0 0 1 3.58 4.01H49.57a9.54765 9.54765 0 0 1 3.58-4.01zm-19.11-4c.92-1.8 2.45-3.28 3.07-5.25H69.19c.62 1.97 2.15 3.45 3.07 5.25zM74.41 73.5c-2.92 3.15-4.44 5.56-5.09 7.51H58.68c-.65-1.95-2.17-4.36-5.09-7.51C42.02 61.03 39 36.23 39 36.23H89S85.98 61.03 74.41 73.5zm10.21-8.21c5.61-11.37 7.74-24.27 8.24-27.72a10.212 10.212 0 0 0 7.04-7.59h3.61C101.93 36.5 96.59 54.88 84.62 65.29z"/><rect width="40" height="8" x="44" y="102.28" fill="#81d9e3"/><path fill="#e1ebf4" d="M78.43,98.28H49.57a9.54765,9.54765,0,0,1,3.58-4.01h21.7A9.54765,9.54765,0,0,1,78.43,98.28Z"/><path fill="#81d9e3" d="M72.26 90.27H55.74c.92-1.8 2.45-3.28 3.07-5.25H69.19C69.81 86.99 71.34 88.47 72.26 90.27zM43.38 65.29C31.43 54.88 26.07 36.49 24.49 29.98H28.1a10.2454 10.2454 0 0 0 7.04 7.6C35.64 41.02 37.77 53.92 43.38 65.29zM103.51 29.98c-1.58 6.52-6.92 24.9-18.89 35.31 5.61-11.37 7.74-24.27 8.24-27.72a10.212 10.212 0 0 0 7.04-7.59z"/><path fill="#e1ebf4" d="M39,36.23s3.02,24.8,14.59,37.27c2.92,3.15,4.44,5.56,5.09,7.51H69.32c.65-1.95,2.17-4.36,5.09-7.51C85.98,61.03,89,36.23,89,36.23ZM64,67A12.005,12.005,0,1,1,76,55,12.00952,12.00952,0,0,1,64,67Z"/><path fill="#2d4356" d="M64,42.99A12.005,12.005,0,1,0,76,55,12.01807,12.01807,0,0,0,64,42.99ZM64,63a8.005,8.005,0,1,1,8-8A7.99782,7.99782,0,0,1,64,63Z"/><path fill="#0f423c" d="M103.51 29.98c-1.58 6.52-6.92 24.9-18.89 35.31q.855-1.72495 1.59-3.48c9.85-9.6 14.82-24.5 16.79-31.83zM43.38 65.29C31.43 54.88 26.07 36.49 24.49 29.98H25c1.97 7.32 6.96 22.23 16.79 31.83Q42.52505 63.565 43.38 65.29z" opacity=".25"/><path fill="#9fa5aa" d="M89,36.23S85.98,61.03,74.41,73.5c-2.92,3.15-4.44,5.56-5.09,7.51H58.68c-.65-1.95-2.17-4.36-5.09-7.51C42.02,61.03,39,36.23,39,36.23h.3c.99,6.14,4.7,24.94,14.29,35.27,2.92,3.15,4.44,5.56,5.09,7.51H69.32c.65-1.95,2.17-4.36,5.09-7.51C84,61.17,87.71,42.37,88.7,36.23Z" opacity=".5"/><path fill="#0f423c" d="M72.26,90.27H55.74a18.14018,18.14018,0,0,1,1.26-2H71A18.14018,18.14018,0,0,1,72.26,90.27Z" opacity=".25"/><path fill="#9fa5aa" d="M78.43,98.28H49.57a8.14747,8.14747,0,0,1,1.28-2h26.3A8.14747,8.14747,0,0,1,78.43,98.28Z" opacity=".5"/><rect width="40" height="2" x="44" y="102.28" fill="#e8fbfc" opacity=".3"/><rect width="40" height="2" x="44" y="108.28" fill="#0f423c" opacity=".25"/><path fill="#fff" d="M89,36.23s-.09.73-.3,2H39.3c-.21-1.27-.3-2-.3-2Z" opacity=".5"/></svg>