<svg xmlns="http://www.w3.org/2000/svg" width="64" height="64" enable-background="new 0 0 64 64" viewBox="0 0 64 64"><polygon fill="#EDEDED" points="34.035 42.41 34.035 55.78 34.975 55.78 34.975 56.92 14.755 56.92 14.755 55.78 15.695 55.78 15.695 42.41 14.755 42.41 14.755 41.26 34.975 41.26 34.975 42.41"/><rect width="9.75" height="18.03" x="40.225" y="42.39" fill="#EDEDED"/><path fill="#FEDC7D" d="M58.404,10.281v8.32h-11.74l2.74,7.42v2.05c0,1.91-1.56,3.47-3.49,3.47c-1.92,0-3.48-1.56-3.48-3.47
			c-0.01,1.93-1.55,3.47-3.48,3.47c-1.92,0-3.48-1.55-3.48-3.48c0,1.93-1.55,3.48-3.48,3.48c-1.92,0-3.48-1.55-3.48-3.48
			c0,1.93-1.55,3.48-3.48,3.48c-1.92,0-3.47-1.54-3.48-3.47c0,1.91-1.56,3.47-3.48,3.47s-3.47-1.56-3.47-3.47v-2.05l2.72-7.42H5.586
			v-8.32H58.404z"/><path fill="#93CDBE" d="M63.324,62.21c0,0.99-0.81,1.79-1.8,1.79H2.466c-0.99,0-1.79-0.8-1.79-1.79c0-0.99,0.8-1.79,1.79-1.79
			h59.059C62.514,60.42,63.324,61.22,63.324,62.21z"/><rect width="18.34" height="13.4" x="15.695" y="42.39" fill="#F1B974"/><rect width="9.75" height="18.03" x="40.225" y="42.39" fill="#788D9A"/><rect width="8.563" height="17.445" x="40.816" y="42.972" fill="#EAEAEA"/><circle cx="41.925" cy="52.002" r=".626" fill="#788D9A"/><rect width="6.345" height="7.05" x="41.925" y="43.729" fill="#92B6CF"/><path fill="#5DAFD8" d="M7.636,26.021v2.05c0,1.4-0.84,2.61-2.05,3.16c-0.43,0.2-0.92,0.31-1.43,0.31
				c-1.93,0-3.48-1.56-3.48-3.47v-2.05H7.636z"/><path fill="#D7D6D6" d="M14.605,26.021v2.05c0,1.91-1.56,3.47-3.49,3.47c-0.35,0-0.69-0.05-1.01-0.15
				c-0.34-0.1-0.65-0.25-0.93-0.44c-0.93-0.62-1.54-1.68-1.54-2.88v-2.05H14.605z"/><path fill="#5DAFD8" d="M21.555,26.021v2.05c0,1.91-1.56,3.47-3.48,3.47s-3.47-1.56-3.47-3.47v-2.05H21.555z"/><path fill="#D7D6D6" d="M28.515,26.021v2.04c0,1.93-1.55,3.48-3.48,3.48c-1.92,0-3.47-1.54-3.48-3.47v-2.05H28.515z"/><path fill="#5DAFD8" d="M35.475,26.021v2.04c0,1.93-1.55,3.48-3.48,3.48c-1.92,0-3.48-1.55-3.48-3.48v-2.04H35.475z"/><path fill="#D7D6D6" d="M42.435,26.021v2.05c-0.01,1.93-1.55,3.47-3.48,3.47c-1.92,0-3.48-1.55-3.48-3.48v-2.04H42.435z"/><path fill="#5DAFD8" d="M49.405,26.021v2.05c0,1.91-1.56,3.47-3.49,3.47c-1.92,0-3.48-1.56-3.48-3.47v-2.05H49.405z"/><path fill="#D7D6D6" d="M56.354,26.021v2.05c0,1.19-0.61,2.25-1.52,2.87c-0.29,0.19-0.6,0.35-0.94,0.45
				c-0.32,0.1-0.65,0.15-1.01,0.15c-1.93,0-3.48-1.56-3.48-3.47v-2.05H56.354z"/><path fill="#5DAFD8" d="M63.324,26.021v2.05c0,1.91-1.56,3.47-3.49,3.47c-0.51,0-0.99-0.11-1.43-0.31
				c-1.2-0.55-2.05-1.76-2.05-3.16v-2.05H63.324z"/><polygon fill="#78BFE8" points="11.465 18.601 10.106 21.241 7.636 26.021 .676 26.021 5.586 18.601"/><polygon fill="#F4F4F4" points="17.325 18.601 14.605 26.021 7.636 26.021 10.106 21.241 11.465 18.601"/><polygon fill="#78BFE8" points="23.195 18.601 23.195 18.611 21.555 26.021 14.605 26.021 17.325 18.601"/><polygon fill="#F4F4F4" points="29.065 18.607 23.197 18.607 21.558 26.021 28.518 26.021"/><polygon fill="#78BFE8" points="34.932 18.607 29.065 18.607 28.518 26.021 35.479 26.021"/><polygon fill="#F4F4F4" points="40.8 18.607 34.932 18.607 35.479 26.021 42.439 26.021"/><polygon fill="#78BFE8" points="49.405 26.021 42.435 26.021 40.795 18.611 40.795 18.601 46.665 18.601"/><polygon fill="#F4F4F4" points="56.354 26.021 49.405 26.021 46.665 18.601 52.545 18.601 53.895 21.231"/><polygon fill="#78BFE8" points="63.324 26.021 56.354 26.021 53.895 21.231 52.545 18.601 58.404 18.601"/><path fill="#F26E62" d="M41.284,6.607H22.708c-1.825,0-3.304-1.479-3.304-3.304l0,0C19.404,1.479,20.883,0,22.708,0h18.577
			c1.824,0,3.304,1.479,3.304,3.304l0,0C44.588,5.128,43.109,6.607,41.284,6.607z"/><rect width="1.835" height="3.671" x="23.228" y="6.607" fill="#788D9A"/><rect width="1.835" height="3.671" x="38.929" y="6.607" fill="#788D9A"/><path fill="#EDEDED" d="M27.849 4.026c0 .203-.037.38-.113.533-.076.153-.178.281-.307.383-.13.102-.281.18-.454.231-.172.052-.358.077-.554.077-.133 0-.257-.011-.371-.034-.115-.021-.215-.048-.303-.078-.087-.031-.161-.063-.219-.098-.058-.033-.101-.063-.127-.089-.026-.026-.044-.063-.054-.112-.012-.049-.016-.119-.016-.21 0-.062.002-.114.006-.155.004-.042.011-.076.019-.101.009-.026.021-.045.035-.055.015-.011.032-.016.053-.016.028 0 .067.016.118.049.051.033.116.07.196.109.079.04.174.077.285.109.11.032.238.049.382.049.096 0 .182-.011.257-.034.075-.023.14-.055.192-.097.053-.042.093-.094.121-.155.028-.061.042-.13.042-.205 0-.088-.024-.163-.072-.226-.048-.062-.11-.118-.186-.166-.076-.049-.163-.095-.261-.138-.097-.043-.198-.088-.301-.136-.103-.048-.204-.101-.301-.163-.098-.06-.185-.133-.261-.218-.077-.084-.139-.184-.186-.299-.048-.116-.072-.253-.072-.415 0-.184.034-.347.103-.488.069-.14.161-.256.277-.349.117-.092.253-.162.411-.207.159-.045.326-.068.503-.068.092 0 .183.007.274.021.092.013.177.033.256.056.079.024.15.051.212.08.061.03.102.054.122.075.019.02.032.037.04.051.007.014.012.032.017.055.006.023.009.052.01.086.002.035.003.078.003.13 0 .057-.001.106-.004.146-.003.039-.009.073-.015.099-.007.026-.016.044-.03.056-.013.012-.031.018-.053.018-.021 0-.056-.014-.104-.042-.048-.028-.106-.058-.176-.091-.07-.033-.15-.063-.241-.09-.092-.027-.192-.04-.302-.04-.085 0-.16.011-.223.031-.064.021-.118.05-.16.086-.043.037-.074.081-.096.133-.021.052-.031.106-.031.164 0 .085.023.16.07.222.047.063.11.119.188.167.078.049.167.095.267.137.099.043.201.088.304.136.103.048.204.102.304.163.099.061.188.134.266.218.077.084.14.184.188.298C27.825 3.737 27.849 3.871 27.849 4.026zM31.461 5.076c0 .02-.006.037-.019.053-.012.016-.034.029-.064.038-.03.01-.07.018-.12.024-.05.007-.112.01-.187.01-.077 0-.142-.003-.192-.01-.051-.006-.091-.013-.12-.024-.029-.01-.05-.022-.063-.038-.012-.016-.019-.033-.019-.053v-1.56h-1.443v1.56c0 .02-.006.037-.017.053-.012.016-.034.029-.063.038-.03.01-.07.018-.12.024-.05.007-.113.01-.19.01-.076 0-.139-.003-.189-.01-.052-.006-.092-.013-.121-.024-.03-.01-.051-.022-.064-.038-.013-.016-.019-.033-.019-.053V1.432c0-.02.007-.038.019-.054.013-.016.034-.03.064-.039.03-.01.07-.018.121-.024.051-.006.114-.009.189-.009.077 0 .14.003.19.009.05.006.09.014.12.024.03.01.051.023.063.039.011.015.017.033.017.054v1.416h1.443V1.432c0-.02.007-.038.019-.054.013-.016.034-.03.063-.039.029-.01.069-.018.12-.024.051-.006.115-.009.192-.009.076 0 .138.003.187.009.05.006.09.014.12.024.03.01.052.023.064.039.013.015.019.033.019.054V5.076zM35.773 3.209c0 .32-.04.606-.119.858s-.198.467-.355.643c-.157.176-.352.31-.583.403-.231.092-.499.139-.804.139-.3 0-.562-.039-.786-.118-.224-.079-.41-.199-.559-.359-.149-.162-.26-.366-.335-.615-.075-.249-.112-.543-.112-.882 0-.313.039-.594.119-.843.079-.25.198-.462.356-.637.157-.175.351-.309.582-.403.232-.093.501-.14.807-.14.292 0 .551.038.774.116.224.078.41.197.56.359.15.161.264.364.34.61C35.735 2.585 35.773 2.875 35.773 3.209zM34.95 3.251c0-.204-.016-.387-.048-.554-.032-.166-.086-.308-.163-.426-.076-.118-.179-.21-.306-.274-.127-.065-.286-.097-.477-.097-.193 0-.354.036-.483.109C33.345 2.081 33.24 2.179 33.16 2.3c-.079.12-.136.263-.168.424-.032.163-.049.334-.049.514 0 .211.015.401.047.568.032.168.086.312.162.431.076.119.177.21.304.273.127.062.288.094.48.094.193 0 .354-.036.484-.107.129-.072.233-.169.313-.293.079-.123.136-.267.168-.431C34.934 3.61 34.95 3.436 34.95 3.251zM39.074 2.496c0 .217-.034.409-.101.575-.068.167-.166.308-.295.423-.129.114-.288.201-.476.261-.187.059-.409.089-.663.089h-.322v1.232c0 .02-.007.037-.019.053-.013.016-.034.029-.064.038-.03.01-.07.018-.119.024-.05.007-.113.01-.191.01-.076 0-.139-.003-.189-.01-.051-.006-.091-.013-.12-.024-.03-.01-.051-.022-.062-.038-.013-.016-.018-.033-.018-.053V1.605c0-.094.024-.164.073-.21.049-.047.113-.071.192-.071h.91c.092 0 .179.004.261.01.082.008.182.022.296.045.116.023.232.065.351.127.118.061.219.14.302.234.084.094.147.205.191.331C39.052 2.198 39.074 2.339 39.074 2.496zM38.253 2.553c0-.136-.024-.247-.072-.335-.048-.087-.106-.152-.176-.193-.07-.042-.142-.069-.219-.079C37.71 1.935 37.631 1.93 37.55 1.93h-.334v1.309h.352c.125 0 .23-.017.315-.051.085-.033.154-.081.207-.141.054-.06.095-.133.122-.218C38.239 2.744 38.253 2.653 38.253 2.553z"/><rect width="20.219" height="1.14" x="14.755" y="55.78" fill="#788D9A"/><rect width="20.219" height="1.15" x="14.755" y="41.26" fill="#788D9A"/><path fill="#FEDC7D" d="M56.354,28.071c0,1.19-0.61,2.25-1.52,2.87c-0.29,0.19-0.6,0.35-0.94,0.45c-0.32,0.1-0.65,0.15-1.01,0.15
		c-1.93,0-3.48-1.56-3.48-3.47c0,1.91-1.56,3.47-3.49,3.47c-1.92,0-3.48-1.56-3.48-3.47c-0.01,1.93-1.55,3.47-3.48,3.47
		c-1.92,0-3.48-1.55-3.48-3.48c0,1.93-1.55,3.48-3.48,3.48c-1.92,0-3.48-1.55-3.48-3.48c0,1.93-1.55,3.48-3.48,3.48
		c-1.92,0-3.47-1.54-3.48-3.47c0,1.91-1.56,3.47-3.48,3.47s-3.47-1.56-3.47-3.47c0,1.91-1.56,3.47-3.49,3.47
		c-0.35,0-0.69-0.05-1.01-0.15c-0.34-0.1-0.65-0.25-0.93-0.44c-0.93-0.62-1.54-1.68-1.54-2.88c0,1.4-0.84,2.61-2.05,3.16V60.42
		h34.639V42.39h9.75v18.03h8.43V31.231C57.205,30.681,56.354,29.471,56.354,28.071z M34.975,42.41h-0.94V55.78h0.94v1.14H14.755
		v-1.14h0.94V42.41h-0.94v-1.15h20.219V42.41z"/></svg>