<svg xmlns="http://www.w3.org/2000/svg" data-name="Layer 1" viewBox="0 0 128 128"><path fill="#2d4356" d="M64,6a58,58,0,1,0,58,58A58.06736,58.06736,0,0,0,64,6Zm53.95,56h-12A41.892,41.892,0,0,0,95.06,35.76l8.48-8.48A53.78251,53.78251,0,0,1,117.95,62ZM83.73,80.9A25.857,25.857,0,0,0,89.91,66h12.03a37.79222,37.79222,0,0,1-9.71,23.4ZM89.4,92.23A37.85905,37.85905,0,0,1,66,101.95V89.92a25.868,25.868,0,0,0,14.9-6.19ZM89.91,62a25.85706,25.85706,0,0,0-6.18-14.9l8.5-8.5A37.79238,37.79238,0,0,1,101.94,62ZM66,10.05a53.82406,53.82406,0,0,1,34.72,14.4l-8.48,8.49A41.86,41.86,0,0,0,66,22.05Zm0,16a37.859,37.859,0,0,1,23.4,9.72l-8.5,8.5A25.868,25.868,0,0,0,66,38.08Zm-4-16v12A41.81384,41.81384,0,0,0,35.76,32.94l-8.48-8.49A53.82406,53.82406,0,0,1,62,10.05ZM26.05,62a37.85891,37.85891,0,0,1,9.72-23.4l8.5,8.5A25.86787,25.86787,0,0,0,38.08,62ZM44.27,80.9l-8.5,8.5A37.85874,37.85874,0,0,1,26.05,66H38.08A25.86786,25.86786,0,0,0,44.27,80.9ZM38.59,35.77A37.886,37.886,0,0,1,62,26.05V38.08a25.92488,25.92488,0,0,0-14.91,6.19ZM24.45,27.28l8.48,8.48A41.82717,41.82717,0,0,0,22.05,62h-12A53.82435,53.82435,0,0,1,24.45,27.28ZM10.05,66h12A41.82745,41.82745,0,0,0,32.93,92.24l-8.48,8.48A53.82419,53.82419,0,0,1,10.05,66ZM62,117.95a53.82469,53.82469,0,0,1-34.72-14.4l8.48-8.49A41.81417,41.81417,0,0,0,62,105.95Zm0-16a37.886,37.886,0,0,1-23.41-9.72l8.5-8.5A25.92488,25.92488,0,0,0,62,89.92ZM42,64A22,22,0,1,1,64,86,22.026,22.026,0,0,1,42,64Zm24,53.95v-12A41.86031,41.86031,0,0,0,92.24,95.06l8.48,8.49A53.82469,53.82469,0,0,1,66,117.95Zm37.54-17.23-8.48-8.48A41.89224,41.89224,0,0,0,105.95,66h12A53.78236,53.78236,0,0,1,103.54,100.72Z"/><path fill="#feaca4" d="M62,10.05v12A41.81384,41.81384,0,0,0,35.76,32.94l-8.48-8.49A53.82406,53.82406,0,0,1,62,10.05Z"/><path fill="#81d9e3" d="M32.93,35.76A41.82717,41.82717,0,0,0,22.05,62h-12a53.82435,53.82435,0,0,1,14.4-34.72Z"/><path fill="#ffdb80" d="M32.93,92.24l-8.48,8.48A53.82419,53.82419,0,0,1,10.05,66h12A41.82745,41.82745,0,0,0,32.93,92.24Z"/><path fill="#fc785e" d="M62,105.95v12a53.82469,53.82469,0,0,1-34.72-14.4l8.48-8.49A41.81417,41.81417,0,0,0,62,105.95Z"/><path fill="#feaca4" d="M100.72,103.55A53.82469,53.82469,0,0,1,66,117.95v-12A41.86031,41.86031,0,0,0,92.24,95.06Z"/><path fill="#81d9e3" d="M117.95,66a53.78236,53.78236,0,0,1-14.41,34.72l-8.48-8.48A41.89224,41.89224,0,0,0,105.95,66Z"/><path fill="#ffdb80" d="M117.95,62h-12A41.892,41.892,0,0,0,95.06,35.76l8.48-8.48A53.78251,53.78251,0,0,1,117.95,62Z"/><path fill="#fc785e" d="M100.72,24.45l-8.48,8.49A41.86,41.86,0,0,0,66,22.05v-12A53.82406,53.82406,0,0,1,100.72,24.45Z"/><path fill="#81d9e3" d="M89.4,35.77l-8.5,8.5A25.868,25.868,0,0,0,66,38.08V26.05A37.859,37.859,0,0,1,89.4,35.77Z"/><path fill="#ffdb80" d="M62,26.05V38.08a25.92488,25.92488,0,0,0-14.91,6.19l-8.5-8.5A37.886,37.886,0,0,1,62,26.05Z"/><path fill="#fc785e" d="M44.27,47.1A25.86787,25.86787,0,0,0,38.08,62H26.05a37.85891,37.85891,0,0,1,9.72-23.4Z"/><path fill="#feaca4" d="M44.27,80.9l-8.5,8.5A37.85874,37.85874,0,0,1,26.05,66H38.08A25.86786,25.86786,0,0,0,44.27,80.9Z"/><path fill="#81d9e3" d="M62,89.92v12.03a37.886,37.886,0,0,1-23.41-9.72l8.5-8.5A25.92488,25.92488,0,0,0,62,89.92Z"/><path fill="#ffdb80" d="M89.4,92.23A37.85905,37.85905,0,0,1,66,101.95V89.92a25.868,25.868,0,0,0,14.9-6.19Z"/><path fill="#fc785e" d="M101.94,66a37.79222,37.79222,0,0,1-9.71,23.4l-8.5-8.5A25.857,25.857,0,0,0,89.91,66Z"/><path fill="#feaca4" d="M101.94,62H89.91a25.85706,25.85706,0,0,0-6.18-14.9l8.5-8.5A37.79238,37.79238,0,0,1,101.94,62Z"/><path fill="#e1ebf4" d="M86,64A22,22,0,1,1,64,42,22.026,22.026,0,0,1,86,64Z"/><path fill="#2d4356" d="M75.25,62.9c-.05-.05-5.54-4.53-9.38-14.61a2.0037,2.0037,0,0,0-3.77.07,33.79726,33.79726,0,0,1-9.35,14.53,1.99837,1.99837,0,0,0,.05,3.16c6.49,4.88,9.26,13.46,9.29,13.55a2.00285,2.00285,0,0,0,3.81995,0c.02-.09,2.77-8.65,9.29-13.55a1.98812,1.98812,0,0,0,.05-3.15ZM64,73.87a33.13479,33.13479,0,0,0-6.98-9.5,38.46418,38.46418,0,0,0,7.04-10.22A41.975,41.975,0,0,0,71,64.35,32.92537,32.92537,0,0,0,64,73.87Z"/><path fill="#9387a2" d="M71,64.35a32.92537,32.92537,0,0,0-7,9.52,33.13479,33.13479,0,0,0-6.98-9.5,38.46418,38.46418,0,0,0,7.04-10.22A41.975,41.975,0,0,0,71,64.35Z"/><circle cx="51.752" cy="34.436" r="2" fill="#2d4356" transform="rotate(-22.5 51.752 34.436)"/><circle cx="34.434" cy="51.754" r="2" fill="#2d4356" transform="rotate(-67.5 34.434 51.754)"/><circle cx="34.434" cy="76.246" r="2" fill="#2d4356" transform="rotate(-22.5 34.434 76.246)"/><circle cx="51.752" cy="93.564" r="2" fill="#2d4356" transform="rotate(-67.5 51.752 93.564)"/><circle cx="76.244" cy="93.564" r="2" fill="#2d4356" transform="rotate(-22.5 76.244 93.564)"/><circle cx="93.562" cy="76.246" r="2" fill="#2d4356" transform="rotate(-67.5 93.562 76.246)"/><circle cx="93.562" cy="51.754" r="2" fill="#2d4356" transform="rotate(-22.499 93.562 51.754)"/><circle cx="76.244" cy="34.436" r="2" fill="#2d4356" transform="rotate(-67.5 76.244 34.436)"/><path fill="#2d4356" d="M6.34369 14.416c1.46094.39844 2.84082.77441 3.37061 1.6123A1.59518 1.59518 0 0 1 9.76458 17.751c-.66748.97852-2.41553 1.16406-3.75586.92578a3.65734 3.65734 0 0 1-1.81494-.96094 1.99982 1.99982 0 1 0-2.77246 2.88281A7.65791 7.65791 0 0 0 5.0766 22.55475V24a2 2 0 1 0 4 0V22.5387a6.32609 6.32609 0 0 0 3.98926-2.52893 5.54985 5.54985 0 0 0 .02637-6.124c-1.3584-2.14648-3.76367-2.80176-5.69678-3.3291C5.34857 9.999 4.35052 9.6377 4.0512 8.74609c-.27148-.81934.64648-1.44043 1.1665-1.65332a4.66248 4.66248 0 0 1 4.51123.752 2.00031 2.00031 0 0 0 2.5293-3.09961A8.60839 8.60839 0 0 0 9.0766 3.1358V2a2 2 0 1 0-4 0v.99255A7.6389 7.6389 0 0 0 3.705 3.38965C.82562 4.56836-.62555 7.35059.25677 10.01172 1.27142 13.03418 4.08392 13.80078 6.34369 14.416zM120.34369 14.416c1.46094.39844 2.84082.77441 3.37061 1.6123a1.59518 1.59518 0 0 1 .05029 1.72266c-.667.97852-2.416 1.16406-3.75586.92578a3.65734 3.65734 0 0 1-1.81494-.96094 1.99982 1.99982 0 1 0-2.77246 2.88281 7.65791 7.65791 0 0 0 3.65527 1.95612V24a2 2 0 0 0 4 0V22.5387a6.32609 6.32609 0 0 0 3.98926-2.52893 5.54985 5.54985 0 0 0 .02637-6.124c-1.3584-2.14648-3.76367-2.80176-5.69678-3.3291-2.04687-.55762-3.04492-.91895-3.34424-1.81055-.27148-.81934.64648-1.44043 1.1665-1.65332a4.66248 4.66248 0 0 1 4.51123.752 2.00031 2.00031 0 0 0 2.5293-3.09961A8.60838 8.60838 0 0 0 123.0766 3.1358V2a2 2 0 0 0-4 0v.99255a7.6389 7.6389 0 0 0-1.37158.39709c-2.87939 1.17871-4.33057 3.96094-3.44824 6.62207C115.27142 13.03418 118.08392 13.80078 120.34369 14.416zM7.39544 112.55664c-2.04687-.55762-3.04492-.91895-3.34424-1.81055-.27148-.81934.64648-1.44043 1.1665-1.65332a4.65758 4.65758 0 0 1 4.51123.752 2.00031 2.00031 0 0 0 2.5293-3.09961 8.60378 8.60378 0 0 0-3.18164-1.60974V104a2 2 0 0 0-4 0v.99249a7.64407 7.64407 0 0 0-1.37158.39716c-2.87939 1.17871-4.33057 3.96094-3.44824 6.62207 1.01465 3.02246 3.82715 3.78906 6.08691 4.4043 1.46094.39844 2.84082.77441 3.37061 1.6123a1.59518 1.59518 0 0 1 .05029 1.72266c-.66748.97949-2.41553 1.16309-3.75586.92578a3.65734 3.65734 0 0 1-1.81494-.96094 1.99982 1.99982 0 1 0-2.77246 2.88281 7.6579 7.6579 0 0 0 3.65527 1.95612V126a2 2 0 0 0 4 0v-1.4613a6.32609 6.32609 0 0 0 3.98926-2.52893 5.54985 5.54985 0 0 0 .02637-6.124C11.73382 113.73926 9.32855 113.084 7.39544 112.55664zM121.39544 112.55664c-2.04687-.55762-3.04492-.91895-3.34424-1.81055-.27148-.81934.64648-1.44043 1.1665-1.65332a4.65758 4.65758 0 0 1 4.51123.752 2.00031 2.00031 0 0 0 2.5293-3.09961 8.60378 8.60378 0 0 0-3.18164-1.60974V104a2 2 0 0 0-4 0v.99249a7.64407 7.64407 0 0 0-1.37158.39716c-2.87939 1.17871-4.33057 3.96094-3.44824 6.62207 1.01465 3.02246 3.82715 3.78906 6.08691 4.4043 1.46094.39844 2.84082.77441 3.37061 1.6123a1.59518 1.59518 0 0 1 .05029 1.72266c-.667.97949-2.416 1.16309-3.75586.92578a3.65734 3.65734 0 0 1-1.81494-.96094 1.99982 1.99982 0 1 0-2.77246 2.88281 7.6579 7.6579 0 0 0 3.65527 1.95612V126a2 2 0 0 0 4 0v-1.4613a6.32609 6.32609 0 0 0 3.98926-2.52893 5.54985 5.54985 0 0 0 .02637-6.124C125.73382 113.73926 123.32855 113.084 121.39544 112.55664z"/><path fill="#a54b3f" d="M62,115.95v2a53.82482,53.82482,0,0,1-34.72-14.4l1.05-1.05A53.75879,53.75879,0,0,0,62,115.95Z" opacity=".5"/><path fill="#dccef2" d="M71,64.35c-.33.3-.66.61-.97.93a43.36617,43.36617,0,0,1-5.97-9.13,38.93631,38.93631,0,0,1-6.07,9.17c-.31-.32-.63-.64-.97-.95a38.46418,38.46418,0,0,0,7.04-10.22A41.975,41.975,0,0,0,71,64.35Z" opacity=".2"/><path fill="#f9dbd7" d="M44.27,47.1c-.31.36-.61.73-.89,1.11L35.77,40.6A37.83831,37.83831,0,0,0,26.21,62h-.16a37.85891,37.85891,0,0,1,9.72-23.4Z" opacity=".3"/><path fill="#f9edd2" d="M62,26.05v2a37.84411,37.84411,0,0,0-22.34,8.79l-1.07-1.07A37.886,37.886,0,0,1,62,26.05Z" opacity=".5"/><path fill="#e8fbfc" d="M89.4,35.77l-1.07,1.07A37.815,37.815,0,0,0,66,28.05v-2A37.85884,37.85884,0,0,1,89.4,35.77Z" opacity=".3"/><path fill="#ffdedc" d="M101.94,62h-.16a37.76087,37.76087,0,0,0-9.55-21.4l-7.61,7.61c-.28-.38-.58-.75-.89-1.11l8.5-8.5A37.79232,37.79232,0,0,1,101.94,62Z" opacity=".5"/><path fill="#f9edd2" d="M117.95,62h-.11a53.8259,53.8259,0,0,0-14.3-32.72l-7.55,7.55c-.3-.36-.61-.72-.93-1.06995l8.48-8.48A53.78277,53.78277,0,0,1,117.95,62Z" opacity=".5"/><path fill="#f9dbd7" d="M100.72,24.45,99.67,25.5A53.75842,53.75842,0,0,0,66,12.05v-2A53.82435,53.82435,0,0,1,100.72,24.45Z" opacity=".3"/><path fill="#ffdedc" d="M62,10.05v2A53.75811,53.75811,0,0,0,28.33,25.5l-1.05-1.05A53.82419,53.82419,0,0,1,62,10.05Z" opacity=".5"/><path fill="#e8fbfc" d="M32.93,35.76c-.32.35-.63.71-.93,1.06995l-7.55-7.55A53.87243,53.87243,0,0,0,10.16,62h-.11a53.825,53.825,0,0,1,14.4-34.72Z" opacity=".3"/><path fill="#aa7371" d="M44.27,80.9l-8.5,8.5A37.85874,37.85874,0,0,1,26.05,66h.16a37.83813,37.83813,0,0,0,9.56,21.4l7.61-7.61C43.66,80.17,43.96,80.54,44.27,80.9Z" opacity=".5"/><path fill="#0f423c" d="M62,99.95v2a37.886,37.886,0,0,1-23.41-9.72l1.07-1.07A37.84417,37.84417,0,0,0,62,99.95Z" opacity=".25"/><path fill="#a54b3f" d="M101.94,66a37.79215,37.79215,0,0,1-9.71,23.4l-8.5-8.5c.31-.36.61-.73.89-1.11l7.61,7.61A37.7607,37.7607,0,0,0,101.78,66Z" opacity=".5"/><path fill="#ad9359" d="M89.4,92.23A37.85891,37.85891,0,0,1,66,101.95v-2a37.8151,37.8151,0,0,0,22.33-8.79Z" opacity=".45"/><path fill="#0f423c" d="M117.95,66a53.78261,53.78261,0,0,1-14.41,34.72l-8.48-8.48c.32-.35.63-.71.93-1.07l7.55,7.55A53.82574,53.82574,0,0,0,117.84,66Z" opacity=".25"/><path fill="#aa7371" d="M100.72,103.55A53.825,53.825,0,0,1,66,117.95v-2A53.7591,53.7591,0,0,0,99.67,102.5Z" opacity=".5"/><path fill="#ad9359" d="M32.93,92.24l-8.48,8.48A53.82482,53.82482,0,0,1,10.05,66h.11A53.87227,53.87227,0,0,0,24.45,98.72L32,91.17C32.3,91.53,32.61,91.89,32.93,92.24Z" opacity=".45"/><path fill="#5f5968" d="M71,64.35a32.9265,32.9265,0,0,0-7,9.52,33.13479,33.13479,0,0,0-6.98-9.5c.3-.31.63-.66.97-1.05A33.53147,33.53147,0,0,1,64,71.87a33.97253,33.97253,0,0,1,6.03-8.59C70.38,63.68,70.71,64.04,71,64.35Z" opacity=".5"/></svg>