<svg xmlns="http://www.w3.org/2000/svg" enable-background="new 0 0 64 64" viewBox="0 0 64 64"><path fill="#4e5292" d="M14.89,33.95c-2.97,0-5.48,1.93-6.36,4.61c0,0,0,0-0.01,0.01c0,0,0,0.01,0,0.02
		c-0.21,0.65-0.33,1.34-0.33,2.07c0,3.69,3.01,6.7,6.7,6.7c3.69,0,6.7-3.01,6.7-6.7C21.59,36.96,18.58,33.95,14.89,33.95z
		 M14.89,35.89c1.92,0,3.58,1.15,4.32,2.8c-0.79-0.22-1.38-0.61-2.06-1.31c-0.34-0.34-0.89-0.38-1.29-0.08
		c-0.1,0.08-2.38,1.78-5.14,1.09C11.53,36.91,13.09,35.89,14.89,35.89z M14.89,45.41c-2.63,0-4.76-2.14-4.76-4.76
		c0-0.14,0.03-0.26,0.04-0.4c2.73,0.74,5.07-0.3,6.2-0.96c0.96,0.83,1.94,1.26,3.28,1.46C19.58,43.33,17.48,45.41,14.89,45.41z"/><path fill="#f0d299" d="M19.64,40.76c-0.06,2.57-2.16,4.65-4.75,4.65c-2.63,0-4.76-2.14-4.76-4.76c0-0.14,0.03-0.26,0.04-0.4
		c2.73,0.74,5.07-0.3,6.2-0.96C17.32,40.13,18.3,40.55,19.64,40.76z"/><path fill="#98d3ba" d="M19.21,38.69c-0.79-0.22-1.38-0.61-2.06-1.31c-0.34-0.34-0.89-0.38-1.29-0.08c-0.1,0.08-2.38,1.78-5.14,1.09
		c0.8-1.48,2.36-2.5,4.16-2.5C16.81,35.89,18.47,37.04,19.21,38.69z"/><path fill="#dfc189" d="M14.79,45.4c-2.58-0.05-4.66-2.16-4.66-4.75c0-0.14,0.03-0.26,0.04-0.4c0.48,0.14,0.95,0.2,1.41,0.23
		c-0.01,0.05-0.01,0.11-0.01,0.16C11.56,43.24,13,45.34,14.79,45.4z"/><path fill="#ffe4aa" d="M19.64,40.76c-0.06,2.57-2.16,4.65-4.75,4.65c1.84-0.01,3.32-2.13,3.32-4.76c0-0.09,0-0.17-0.01-0.25
		C18.63,40.56,19.11,40.68,19.64,40.76z"/><path fill="#89c3a8" d="M14.88,35.89c-1.31,0-2.43,1.09-2.98,2.66c-0.37,0-0.77-0.06-1.17-0.16C11.53,36.91,13.08,35.89,14.88,35.89z"/><path fill="#b9e0ce" d="M19.21,38.69c-0.66-0.18-1.17-0.48-1.73-0.99c-0.6-1.11-1.54-1.81-2.6-1.81
		C16.81,35.89,18.47,37.04,19.21,38.69z"/><path fill="#4e5292" d="M17.32,48.23h-4.87c-3.75,0-6.82,3.05-6.82,6.81v7.99c0,0.54,0.44,0.97,0.97,0.97h16.56
		c0.53,0,0.97-0.43,0.97-0.97v-7.99C24.14,51.29,21.08,48.23,17.32,48.23z M15.53,50.17l-0.27,0.79h-0.74l-0.27-0.79H15.53z
		 M14.63,52.9h0.52l0.89,4.46l-1.15,1.23l-1.15-1.23L14.63,52.9z M22.2,62.06H7.58v-7.02c0-2.6,2.06-4.71,4.63-4.85L12.83,52
		l-1.1,5.47c-0.06,0.3,0.03,0.62,0.24,0.85l2.2,2.34c0.18,0.19,0.44,0.31,0.71,0.31c0.27,0,0.52-0.12,0.71-0.31l2.2-2.34
		c0.21-0.23,0.3-0.55,0.24-0.85L16.95,52l0.63-1.81c2.57,0.14,4.63,2.25,4.63,4.85V62.06z"/><polygon fill="#ffdb7c" points="15.53 50.17 15.26 50.96 14.52 50.96 14.25 50.17"/><path fill="#bec5da" d="M22.2,55.04v7.02H7.58v-7.02c0-2.6,2.06-4.71,4.63-4.85L12.83,52l-1.1,5.47c-0.06,0.3,0.03,0.62,0.24,0.85
		l2.2,2.34c0.18,0.19,0.44,0.31,0.71,0.31c0.27,0,0.52-0.12,0.71-0.31l2.2-2.34c0.21-0.23,0.3-0.55,0.24-0.85L16.95,52l0.63-1.81
		C20.15,50.33,22.2,52.44,22.2,55.04z"/><path fill="#d3d7e4" d="M22.2,55.04v7.02h-1.6v-7.02c0-2.36-1.32-4.32-3.06-4.75l0.04-0.1C20.15,50.33,22.2,52.44,22.2,55.04z"/><path fill="#acb3c6" d="M12.24,50.29c-1.75,0.44-3.06,2.4-3.06,4.75v7.02h-1.6v-7.02c0-2.6,2.06-4.71,4.63-4.85L12.24,50.29z"/><polygon fill="#ffdb7c" points="16.04 57.36 14.89 58.59 13.74 57.36 14.63 52.9 15.15 52.9"/><path fill="#4e5292" d="M49.11,33.95c-2.96,0-5.48,1.93-6.36,4.61c0,0,0,0,0,0.01c-0.01,0-0.01,0.01-0.01,0.02
		c-0.21,0.65-0.33,1.35-0.33,2.07c0,3.69,3.01,6.7,6.7,6.7c3.69,0,6.7-3.01,6.7-6.7C55.81,36.96,52.8,33.95,49.11,33.95z
		 M49.11,35.89c1.93,0,3.58,1.15,4.32,2.8c-0.79-0.22-1.38-0.61-2.06-1.31c-0.34-0.34-0.89-0.38-1.28-0.08
		c-0.11,0.08-2.38,1.78-5.15,1.09C45.76,36.91,47.31,35.89,49.11,35.89z M49.11,45.41c-2.62,0-4.76-2.14-4.76-4.76
		c0-0.14,0.03-0.26,0.04-0.4c2.73,0.74,5.07-0.3,6.2-0.96c0.97,0.83,1.94,1.26,3.28,1.46C53.8,43.33,51.7,45.41,49.11,45.41z"/><path fill="#f0d299" d="M53.86,40.76c-0.06,2.57-2.16,4.65-4.75,4.65c-2.62,0-4.76-2.14-4.76-4.76c0-0.14,0.03-0.26,0.04-0.4
		c2.73,0.74,5.07-0.3,6.2-0.96C51.55,40.13,52.52,40.55,53.86,40.76z"/><path fill="#98d3ba" d="M53.44,38.69c-0.79-0.22-1.38-0.61-2.06-1.31c-0.34-0.34-0.89-0.38-1.28-0.08c-0.11,0.08-2.38,1.78-5.15,1.09
		c0.8-1.48,2.36-2.5,4.16-2.5C51.04,35.89,52.69,37.04,53.44,38.69z"/><path fill="#4e5292" d="M51.54,48.23h-4.87c-3.75,0-6.81,3.05-6.81,6.81v7.99c0,0.54,0.43,0.97,0.97,0.97h16.55
		c0.53,0,0.97-0.43,0.97-0.97v-7.99C58.36,51.29,55.31,48.23,51.54,48.23z M49.76,50.17l-0.28,0.79h-0.73l-0.28-0.79H49.76z
		 M48.85,52.9h0.52l0.89,4.46l-1.15,1.23l-1.14-1.23L48.85,52.9z M56.42,62.06H41.81v-7.02c0-2.6,2.05-4.71,4.62-4.85L47.05,52
		l-1.1,5.47c-0.06,0.3,0.03,0.62,0.25,0.85l2.19,2.34c0.18,0.19,0.45,0.31,0.71,0.31c0.27,0,0.52-0.12,0.71-0.31l2.2-2.34
		c0.21-0.23,0.3-0.55,0.24-0.85L51.17,52l0.64-1.81c2.56,0.14,4.62,2.25,4.62,4.85V62.06z"/><polygon fill="#ffdb7c" points="49.76 50.17 49.48 50.96 48.75 50.96 48.47 50.17"/><polygon fill="#ffdb7c" points="50.26 57.36 49.11 58.59 47.97 57.36 48.85 52.9 49.37 52.9"/><path fill="#bec5da" d="M56.42,55.04v7.02H41.81v-7.02c0-2.6,2.05-4.71,4.62-4.85L47.05,52l-1.1,5.47c-0.06,0.3,0.03,0.62,0.25,0.85
		l2.19,2.34c0.18,0.19,0.45,0.31,0.71,0.31c0.27,0,0.52-0.12,0.71-0.31l2.2-2.34c0.21-0.23,0.3-0.55,0.24-0.85L51.17,52l0.64-1.81
		C54.37,50.33,56.42,52.44,56.42,55.04z"/><path fill="#4e5292" d="M33.78,19.46c0,0.23-0.04,0.45-0.13,0.64c-0.08,0.18-0.2,0.35-0.35,0.48c-0.16,0.14-0.34,0.25-0.56,0.33
		c-0.19,0.08-0.41,0.13-0.65,0.16l-0.08,0.8l-0.03,0.07c-0.01,0.03-0.04,0.06-0.08,0.07c-0.03,0.02-0.07,0.03-0.12,0.04
		c-0.05,0-0.11,0.01-0.17,0.01c-0.09,0-0.16-0.01-0.21-0.02c-0.07-0.01-0.11-0.02-0.15-0.04c-0.05-0.02-0.08-0.05-0.09-0.09
		c-0.02-0.04-0.02-0.08-0.01-0.12l0.07-0.74c-0.09-0.01-0.17-0.03-0.25-0.05c-0.11-0.03-0.2-0.06-0.28-0.09
		c-0.09-0.03-0.16-0.06-0.22-0.1c-0.07-0.03-0.12-0.07-0.15-0.11c-0.04-0.04-0.07-0.1-0.09-0.16c-0.01-0.07-0.02-0.16-0.02-0.28
		c0-0.09,0-0.16,0.01-0.22c0-0.06,0.01-0.12,0.03-0.16c0.02-0.05,0.05-0.08,0.08-0.1c0.03-0.02,0.07-0.03,0.11-0.03
		c0.05,0,0.11,0.02,0.18,0.07c0.07,0.04,0.15,0.09,0.24,0.13c0.11,0.05,0.22,0.09,0.37,0.13c0.14,0.04,0.3,0.06,0.49,0.06
		c0.29,0,0.5-0.05,0.64-0.16c0.14-0.11,0.2-0.23,0.2-0.4c0-0.12-0.03-0.2-0.09-0.27c-0.06-0.08-0.14-0.14-0.23-0.19
		c-0.11-0.07-0.22-0.12-0.36-0.16c-0.14-0.05-0.27-0.1-0.42-0.16c-0.15-0.06-0.28-0.13-0.43-0.19c-0.14-0.08-0.26-0.17-0.38-0.29
		c-0.12-0.12-0.2-0.25-0.27-0.41c-0.07-0.16-0.11-0.36-0.11-0.59c0-0.2,0.04-0.4,0.11-0.56c0.07-0.16,0.17-0.32,0.3-0.45
		c0.13-0.13,0.29-0.23,0.48-0.31c0.17-0.07,0.37-0.12,0.58-0.15l0.07-0.76l0.03-0.07c0.02-0.03,0.04-0.05,0.08-0.07
		c0.04-0.01,0.08-0.02,0.13-0.03c0.04,0,0.1-0.01,0.17-0.01c0.09,0,0.16,0.01,0.21,0.02c0.06,0,0.11,0.02,0.15,0.04
		c0.05,0.02,0.08,0.05,0.09,0.1c0.01,0.03,0.02,0.06,0.02,0.1l-0.08,0.69c0.06,0.01,0.12,0.02,0.17,0.03
		c0.09,0.02,0.16,0.05,0.23,0.07c0.08,0.03,0.15,0.06,0.2,0.09c0.07,0.03,0.11,0.06,0.14,0.09c0.03,0.03,0.05,0.06,0.07,0.09
		c0.01,0.02,0.03,0.06,0.03,0.1c0.01,0.04,0.02,0.08,0.02,0.13v0.37c-0.01,0.07-0.02,0.11-0.03,0.15l-0.01,0.02l-0.05,0.07
		c-0.03,0.02-0.06,0.03-0.09,0.03c-0.05,0-0.11-0.02-0.18-0.07c-0.07-0.03-0.15-0.07-0.23-0.11c-0.1-0.04-0.2-0.07-0.33-0.11
		c-0.12-0.03-0.25-0.05-0.39-0.05c-0.14,0-0.24,0.01-0.34,0.04c-0.09,0.02-0.16,0.06-0.2,0.1c-0.06,0.04-0.1,0.09-0.12,0.15
		c-0.03,0.06-0.04,0.12-0.04,0.18c0,0.12,0.03,0.2,0.09,0.27c0.06,0.08,0.14,0.15,0.24,0.2c0.1,0.06,0.22,0.11,0.36,0.16
		c0.14,0.05,0.28,0.11,0.42,0.16c0.15,0.06,0.29,0.13,0.44,0.19c0.14,0.08,0.27,0.17,0.38,0.28c0.12,0.12,0.21,0.25,0.28,0.41
		C33.75,19.04,33.78,19.24,33.78,19.46z"/><path fill="#4e5292" d="M42.52,9.59H21.48c-1.06,0-1.91,0.84-1.91,1.88V25.5c0,1.04,0.85,1.88,1.91,1.88h21.03
		c1.06,0,1.91-0.84,1.91-1.88V11.47C44.43,10.43,43.57,9.59,42.52,9.59z M21.51,25.44l-0.03-13.93h21l0.03,13.93H21.51z"/><path fill="#4e5292" d="M40.72,14.28c-0.52-0.17-0.94-0.58-1.12-1.09c-0.15-0.39-0.5-0.64-0.91-0.64H25.31c-0.4,0-0.77,0.25-0.9,0.64
		c-0.18,0.5-0.61,0.91-1.13,1.09c-0.4,0.14-0.66,0.5-0.66,0.92v6.56c0,0.42,0.26,0.79,0.66,0.92c0.52,0.17,0.95,0.58,1.13,1.09
		c0.14,0.38,0.5,0.64,0.9,0.64h13.37c0.41,0,0.77-0.26,0.91-0.64c0.18-0.5,0.6-0.91,1.12-1.09c0.4-0.14,0.66-0.5,0.66-0.92V15.2
		C41.38,14.79,41.12,14.42,40.72,14.28z M39.44,21.15c-0.55,0.32-1.03,0.78-1.36,1.33H25.92c-0.33-0.55-0.8-1.01-1.37-1.33v-5.32
		c0.56-0.32,1.04-0.78,1.37-1.33h12.16c0.33,0.55,0.8,1.01,1.36,1.33V21.15z"/><path fill="#4e5292" d="M32,0C21.81,0,13.52,8.29,13.52,18.48c0,10.19,8.29,18.48,18.48,18.48s18.48-8.29,18.48-18.48
		C50.49,8.29,42.2,0,32,0z M32,35.03c-9.12,0-16.54-7.42-16.54-16.54c0-9.12,7.42-16.54,16.54-16.54c9.12,0,16.54,7.43,16.54,16.54
		C48.55,27.61,41.12,35.03,32,35.03z"/><path fill="#ffdb7c" d="M32,1.94c-9.12,0-16.54,7.43-16.54,16.54c0,9.12,7.42,16.54,16.54,16.54c9.12,0,16.54-7.42,16.54-16.54
		C48.55,9.37,41.12,1.94,32,1.94z M42.52,27.38H21.48c-1.06,0-1.91-0.84-1.91-1.88V11.47c0-1.04,0.85-1.88,1.91-1.88h21.03
		c1.06,0,1.91,0.84,1.91,1.88V25.5C44.43,26.54,43.57,27.38,42.52,27.38z"/><path fill="#f0ca6c" d="M45.71,27.74c-0.42,0.62-0.87,1.21-1.38,1.76c-2.92,2.62-6.8,4.22-11.03,4.22c-9.12,0-16.54-7.42-16.54-16.54
		c0-4.22,1.59-8.07,4.2-11.01c0.56-0.49,1.15-0.96,1.77-1.39c-1.05,1.54-1.84,3.27-2.32,5.12c-0.5,0.34-0.84,0.91-0.84,1.56V25.5
		c0,1.04,0.85,1.88,1.91,1.88h5.15c2.73,2.03,6.13,3.22,9.79,3.22C39.86,30.6,43.06,29.55,45.71,27.74z"/><path fill="#e1ba62" d="M44.33,29.51c-3.04,3.38-7.44,5.52-12.32,5.52c-9.12,0-16.54-7.42-16.54-16.54c0-4.88,2.12-9.27,5.5-12.31
		c-2.61,2.94-4.2,6.79-4.2,11.01c0,9.12,7.42,16.54,16.54,16.54C37.53,33.73,41.41,32.13,44.33,29.51z"/><path fill="#b9e0ce" d="M42.49,11.51h-21l0.03,13.93h21L42.49,11.51z M41.38,21.77c0,0.42-0.26,0.79-0.66,0.92
		c-0.52,0.17-0.94,0.58-1.12,1.09c-0.15,0.38-0.5,0.64-0.91,0.64H25.31c-0.4,0-0.77-0.26-0.9-0.64c-0.18-0.5-0.61-0.91-1.13-1.09
		c-0.4-0.14-0.66-0.5-0.66-0.92V15.2c0-0.42,0.26-0.79,0.66-0.92c0.52-0.17,0.95-0.58,1.13-1.09c0.14-0.39,0.5-0.64,0.9-0.64h13.37
		c0.41,0,0.77,0.25,0.91,0.64c0.18,0.5,0.6,0.91,1.12,1.09c0.4,0.14,0.66,0.5,0.66,0.92V21.77z"/><path fill="#98d3ba" d="M42.52,22.93v1.74H23.23c-0.52,0-0.94-0.42-0.95-0.94l-0.02-12.21H24v2.3c-0.16,0.17-0.37,0.31-0.59,0.41
		c-0.05,0.03-0.09,0.04-0.14,0.06c-0.4,0.14-0.66,0.5-0.66,0.92v6.56c0,0.42,0.26,0.79,0.66,0.92c0.52,0.17,0.95,0.58,1.13,1.09
		c0.14,0.38,0.5,0.64,0.9,0.64h13.37c0.41,0,0.77-0.26,0.91-0.64c0.02-0.05,0.04-0.11,0.07-0.16c0.14-0.28,0.34-0.52,0.59-0.69
		H42.52z"/><path fill="#89c3a8" d="M42.52,24.67v0.78h-21l-0.03-13.93h0.78l0.02,12.21c0.01,0.52,0.43,0.94,0.95,0.94H42.52z"/><path fill="#d8dfe6" d="M38.08,14.5H25.92c-0.33,0.55-0.8,1.01-1.37,1.33v5.32c0.56,0.32,1.04,0.78,1.37,1.33h12.16
		c0.33-0.55,0.8-1.01,1.36-1.33v-5.32C38.89,15.51,38.41,15.05,38.08,14.5z M33.65,20.1c-0.08,0.18-0.2,0.35-0.35,0.48
		c-0.16,0.14-0.34,0.25-0.56,0.33c-0.19,0.08-0.41,0.13-0.65,0.16l-0.08,0.8l-0.03,0.07c-0.01,0.03-0.04,0.06-0.08,0.07
		c-0.03,0.02-0.07,0.03-0.12,0.04c-0.05,0-0.11,0.01-0.17,0.01c-0.09,0-0.16-0.01-0.21-0.02c-0.07-0.01-0.11-0.02-0.15-0.04
		c-0.05-0.02-0.08-0.05-0.09-0.09c-0.02-0.04-0.02-0.08-0.01-0.12l0.07-0.74c-0.09-0.01-0.17-0.03-0.25-0.05
		c-0.11-0.03-0.2-0.06-0.28-0.09c-0.09-0.03-0.16-0.06-0.22-0.1c-0.07-0.03-0.12-0.07-0.15-0.11c-0.04-0.04-0.07-0.1-0.09-0.16
		c-0.01-0.07-0.02-0.16-0.02-0.28c0-0.09,0-0.16,0.01-0.22c0-0.06,0.01-0.12,0.03-0.16c0.02-0.05,0.05-0.08,0.08-0.1
		c0.03-0.02,0.07-0.03,0.11-0.03c0.05,0,0.11,0.02,0.18,0.07c0.07,0.04,0.15,0.09,0.24,0.13c0.11,0.05,0.22,0.09,0.37,0.13
		c0.14,0.04,0.3,0.06,0.49,0.06c0.29,0,0.5-0.05,0.64-0.16c0.14-0.11,0.2-0.23,0.2-0.4c0-0.12-0.03-0.2-0.09-0.27
		c-0.06-0.08-0.14-0.14-0.23-0.19c-0.11-0.07-0.22-0.12-0.36-0.16c-0.14-0.05-0.27-0.1-0.42-0.16c-0.15-0.06-0.28-0.13-0.43-0.19
		c-0.14-0.08-0.26-0.17-0.38-0.29c-0.12-0.12-0.2-0.25-0.27-0.41c-0.07-0.16-0.11-0.36-0.11-0.59c0-0.2,0.04-0.4,0.11-0.56
		c0.07-0.16,0.17-0.32,0.3-0.45c0.13-0.13,0.29-0.23,0.48-0.31c0.17-0.07,0.37-0.12,0.58-0.15l0.07-0.76l0.03-0.07
		c0.02-0.03,0.04-0.05,0.08-0.07c0.04-0.01,0.08-0.02,0.13-0.03c0.04,0,0.1-0.01,0.17-0.01c0.09,0,0.16,0.01,0.21,0.02
		c0.06,0,0.11,0.02,0.15,0.04c0.05,0.02,0.08,0.05,0.09,0.1c0.01,0.03,0.02,0.06,0.02,0.1l-0.08,0.69c0.06,0.01,0.12,0.02,0.17,0.03
		c0.09,0.02,0.16,0.05,0.23,0.07c0.08,0.03,0.15,0.06,0.2,0.09c0.07,0.03,0.11,0.06,0.14,0.09c0.03,0.03,0.05,0.06,0.07,0.09
		c0.01,0.02,0.03,0.06,0.03,0.1c0.01,0.04,0.02,0.08,0.02,0.13v0.37c-0.01,0.07-0.02,0.11-0.03,0.15l-0.01,0.02l-0.05,0.07
		c-0.03,0.02-0.06,0.03-0.09,0.03c-0.05,0-0.11-0.02-0.18-0.07c-0.07-0.03-0.15-0.07-0.23-0.11c-0.1-0.04-0.2-0.07-0.33-0.11
		c-0.12-0.03-0.25-0.05-0.39-0.05c-0.14,0-0.24,0.01-0.34,0.04c-0.09,0.02-0.16,0.06-0.2,0.1c-0.06,0.04-0.1,0.09-0.12,0.15
		c-0.03,0.06-0.04,0.12-0.04,0.18c0,0.12,0.03,0.2,0.09,0.27c0.06,0.08,0.14,0.15,0.24,0.2c0.1,0.06,0.22,0.11,0.36,0.16
		c0.14,0.05,0.28,0.11,0.42,0.16c0.15,0.06,0.29,0.13,0.44,0.19c0.14,0.08,0.27,0.17,0.38,0.28c0.12,0.12,0.21,0.25,0.28,0.41
		c0.07,0.16,0.1,0.36,0.1,0.58C33.78,19.69,33.74,19.91,33.65,20.1z"/><path fill="#ccd5dd" d="M39.44 20.3v.85c-.16.1-.32.2-.47.31 0 .01-.01.01-.01.02-.15.12-.29.24-.41.38h-6.55l.05-.45.03-.34c.21-.03.4-.07.57-.14.03 0 .05-.01.08-.02.22-.08.41-.19.56-.33.1-.09.17-.18.24-.29H39.44zM31.23 21.05l-.07.74c-.01.02-.01.05 0 .07h-4.62c-.33-.55-.8-1.01-1.37-1.33v-5.16c.18-.15.35-.32.49-.5.09-.12.17-.24.25-.37h.81v4.47c.56.32 1.04.78 1.37 1.33h2.11c0 .12.01.19.02.25.02.07.05.13.09.16.03.04.08.08.15.11.07.04.14.07.22.1.08.03.17.06.28.09C31.05 21.02 31.14 21.04 31.23 21.05z"/><path fill="#b5c3cc" d="M38.56,21.86c-0.18,0.18-0.34,0.4-0.48,0.62H25.92c-0.33-0.55-0.8-1.01-1.37-1.33v-5.32
		c0.22-0.13,0.43-0.27,0.62-0.46v5.16c0.56,0.32,1.04,0.78,1.37,1.33h4.62c0,0.02,0,0.04,0.01,0.05c0.01,0.04,0.04,0.07,0.09,0.09
		c0.04,0.02,0.08,0.03,0.15,0.04c0.05,0.01,0.13,0.02,0.21,0.02c0.07,0,0.13-0.01,0.17-0.01c0.05-0.01,0.09-0.02,0.12-0.04
		c0.04-0.01,0.07-0.04,0.08-0.07l0.03-0.07v-0.01H38.56z"/><path fill="#dfc189" d="M49.02,45.4c-2.58-0.05-4.66-2.16-4.66-4.75c0-0.14,0.03-0.26,0.04-0.4c0.48,0.14,0.95,0.2,1.41,0.23
			c-0.01,0.05-0.01,0.11-0.01,0.16C45.79,43.24,47.23,45.34,49.02,45.4z"/><path fill="#ffe4aa" d="M53.87,40.76c-0.06,2.57-2.16,4.65-4.75,4.65c1.84-0.01,3.32-2.13,3.32-4.76c0-0.09,0-0.17-0.01-0.25
			C52.86,40.56,53.34,40.68,53.87,40.76z"/><path fill="#89c3a8" d="M49.11,35.89c-1.31,0-2.43,1.09-2.98,2.66c-0.37,0-0.77-0.06-1.17-0.16C45.76,36.91,47.31,35.89,49.11,35.89z
			"/><path fill="#b9e0ce" d="M53.44,38.69c-0.66-0.18-1.17-0.48-1.73-0.99c-0.6-1.11-1.54-1.81-2.6-1.81
			C51.04,35.89,52.7,37.04,53.44,38.69z"/><path fill="#d3d7e4" d="M56.43,55.04v7.02h-1.6v-7.02c0-2.36-1.32-4.32-3.06-4.75l0.04-0.1C54.38,50.33,56.43,52.44,56.43,55.04z"/><path fill="#acb3c6" d="M46.47,50.29c-1.75,0.44-3.06,2.4-3.06,4.75v7.02h-1.6v-7.02c0-2.6,2.06-4.71,4.63-4.85L46.47,50.29z"/></svg>