<svg xmlns="http://www.w3.org/2000/svg" width="512" height="512" fill-rule="evenodd" clip-rule="evenodd" image-rendering="optimizeQuality" shape-rendering="geometricPrecision" text-rendering="geometricPrecision" viewBox="0 0 512 512"><rect width="512" height="512" fill="none"/><rect width="512" height="512" fill="none"/><polygon fill="#318ae2" points="256 106 321 143 386 181 386 256 386 331 321 369 256 406 191 369 126 331 126 256 126 181 191 143"/><polygon fill="#2475da" points="256 406 191 369 126 331 126 256 126 181 191 143 256 106"/><polygon fill="#318ae2" points="256 131 310 162 364 193 364 256 364 319 310 350 256 381 202 350 148 319 148 256 148 193 202 162"/><path fill="#fff" d="M255 235c-15,1 -35,-8 -46,-17 -1,-2 -3,-3 -5,-5 -1,-1 -2,-2 -3,-3 -1,-1 -1,-2 -2,-3 -2,2 -3,7 -3,10 -2,8 1,17 7,23 1,1 1,1 2,2 1,0 1,1 2,1 -6,0 -8,-2 -12,-3 0,14 10,24 21,27 -2,2 -9,1 -11,0 2,11 13,19 25,19 -2,3 -13,8 -17,9 -8,3 -13,3 -23,3 1,1 7,4 9,4 3,2 6,3 9,4 22,7 45,4 64,-8 11,-6 20,-16 26,-27 8,-14 10,-26 10,-42 4,-2 11,-10 14,-14 -4,1 -8,4 -15,4 1,-1 2,-2 3,-3 3,-2 7,-8 8,-12 -4,2 -5,4 -15,6 -3,1 -2,0 -4,-1 -13,-10 -30,-8 -39,4 -5,6 -7,13 -5,22z"/></svg>