<svg xmlns="http://www.w3.org/2000/svg" width="512" height="512" fill-rule="evenodd" clip-rule="evenodd" image-rendering="optimizeQuality" shape-rendering="geometricPrecision" text-rendering="geometricPrecision" viewBox="0 0 512 512"><rect width="512" height="512" fill="none"/><polygon fill="#d42b25" points="256 106 321 143 386 181 386 256 386 331 321 369 256 406 191 369 126 331 126 256 126 181 191 143"/><polygon fill="#c91f1a" points="256 406 191 369 126 331 126 256 126 181 191 143 256 106"/><polygon fill="#d42b25" points="256 131 310 162 364 193 364 256 364 319 310 350 256 381 202 350 148 319 148 256 148 193 202 162"/><path fill="#fffefe" d="M228 247c-7 0-19 0-24 2-6 3-10 8-10 17-1 12-2 39 0 51 1 6 6 11 13 13 7 3 68 2 77 2 13-1 33 2 34-19 1-13 2-39 0-51-1-7-6-12-12-14-8-2-69-1-78-1zm30 69l8 1 0-3c2 1 3 3 7 3 3 0 5-1 6-4 2-3 2-31 0-35-4-8-13 0-13 0l0-17-8 0 0 55zm51-14l-8 0c0 3 0 11-5 8-3-2-2-10-2-13l15 0c3-29-15-24-20-19-3 4-3 8-3 14 0 10-2 21 7 25 8 3 17-1 16-15zm-66 10l0 4 8 1c0-3 0-38 0-42l-8 0 0 32c-1 1-2 2-4 2-2 1-1 0-2 0-2-3 0-28 0-34l-8 0c-1 8 0 22 0 30 0 4-1 10 3 12 5 2 9-3 11-5zm-40-44l9 1 0 47 8 0 0-47 9 0 0-8-26 0 0 7zM250 194c-12 2-9 13-9 24 0 5-1 11 2 15 2 3 6 5 12 4 10-2 8-14 8-25 0-6 1-20-13-18zm-1 11c0 5-1 20 0 24 4 2 6 1 6-4l0-20c0-5-6-6-6 0zM223 236l8 0c2-7-2-15 2-30l8-26-9 0-5 23c-1-1 0-1-1-2 0 0 0-1 0-1l-3-12c-3-10 0-8-11-8 2 10 10 27 10 40 0 4 0 12 1 16zM278 229c-2-4-1-28-1-34l-8 0c0 10 0 20 0 30 0 5 0 11 4 12 5 1 9-3 11-5l0 4 7 0 0-41-7 0c-2 17 4 35-6 34z"/><path fill="#fffefe" d="M268 282c-3 1-2 3-2 7 0 3 0 6 0 8 0 4-2 16 5 13 3-1 2-12 2-16 0-4 1-15-5-12zM294 290l7 0c0-3 1-8-3-9-5 0-4 6-4 9z"/></svg>