<svg xmlns="http://www.w3.org/2000/svg" xmlns:svgjs="http://svgjs.com/svgjs" xmlns:xlink="http://www.w3.org/1999/xlink" width="288" height="288"><svg xmlns="http://www.w3.org/2000/svg" width="288" height="288" viewBox="0 0 64 64"><path fill="#fc5c9c" d="M29.19 37.1a1.5 1.5 0 0 1-1.5 1.5h-6.37a1.5 1.5 0 0 1-1.5-1.5V26.9a1.5 1.5 0 0 1 3 0v8.7h4.87a1.5 1.5 0 0 1 1.5 1.5Zm4.39-11.7a1.5 1.5 0 0 0-1.5 1.5v10.2a1.5 1.5 0 1 0 3 0V26.9a1.5 1.5 0 0 0-1.5-1.5Zm14.21.1a1.51 1.51 0 0 0-1.95.85L43.26 33l-2.59-6.63a1.5 1.5 0 0 0-2.79 1.09l4 10.21a1.45 1.45 0 0 0 .2.34l.06.07a1.6 1.6 0 0 0 .27.25 1.51 1.51 0 0 0 .28.15 1.63 1.63 0 0 0 .49.09 1.58 1.58 0 0 0 .49-.09 1.59 1.59 0 0 0 .29-.15 1.29 1.29 0 0 0 .27-.25l.06-.07a1.45 1.45 0 0 0 .2-.34l4-10.21a1.5 1.5 0 0 0-.7-1.96ZM59 35.6h-4.57v-2.1H57a1.5 1.5 0 1 0 0-3h-2.57v-2.1H59a1.5 1.5 0 0 0 0-3h-6a1.5 1.5 0 0 0-1.5 1.5v10.2a1.5 1.5 0 0 0 1.5 1.5h6a1.5 1.5 0 0 0 0-3ZM8.53 27.13a5 5 0 1 0 5 5 5 5 0 0 0-5-5Z" class="color222 svgShape" data-name="Live"/></svg></svg>